<?xml version="1.0" encoding="UTF-8" standalone="no"?><svg xmlns="http://www.w3.org/2000/svg" xmlns:xlink="http://www.w3.org/1999/xlink" contentScriptType="application/ecmascript" contentStyleType="text/css" height="1226px" preserveAspectRatio="none" style="width:874px;height:1226px;background:#FFFFFF;" version="1.1" viewBox="0 0 874 1226" width="874px" zoomAndPan="magnify"><defs><filter height="300%" id="fz60wxyvf42bp" width="300%" x="-1" y="-1"><feGaussianBlur result="blurOut" stdDeviation="2.0"/><feColorMatrix in="blurOut" result="blurOut2" type="matrix" values="0 0 0 0 0 0 0 0 0 0 0 0 0 0 0 0 0 0 .4 0"/><feOffset dx="4.0" dy="4.0" in="blurOut2" result="blurOut3"/><feBlend in="SourceGraphic" in2="blurOut3" mode="normal"/></filter></defs><g><rect fill="#DDDDDD" height="26.2969" rx="5" ry="5" style="stroke:#000000;stroke-width:1.0;" width="384" x="238" y="8"/><text fill="#000000" font-family="sans-serif" font-size="14" lengthAdjust="spacing" textLength="372" x="244" y="25.9951">NotarizationRequestSubmissionFlow State Transitions</text><ellipse cx="504" cy="59.2969" fill="#000000" filter="url(#fz60wxyvf42bp)" rx="10" ry="10" style="stroke:none;stroke-width:1.0;"/><g id="CREATED"><rect fill="#FEFECE" filter="url(#fz60wxyvf42bp)" height="50" rx="12.5" ry="12.5" style="stroke:#A80036;stroke-width:1.5;" width="87" x="318.5" y="146.2969"/><line style="stroke:#A80036;stroke-width:1.5;" x1="318.5" x2="405.5" y1="172.5938" y2="172.5938"/><text fill="#000000" font-family="sans-serif" font-size="14" lengthAdjust="spacing" textLength="67" x="328.5" y="164.292">CREATED</text></g><g id="SUBMITTABLE"><rect fill="#FEFECE" filter="url(#fz60wxyvf42bp)" height="50" rx="12.5" ry="12.5" style="stroke:#A80036;stroke-width:1.5;" width="117" x="445.5" y="273.2969"/><line style="stroke:#A80036;stroke-width:1.5;" x1="445.5" x2="562.5" y1="299.5938" y2="299.5938"/><text fill="#000000" font-family="sans-serif" font-size="14" lengthAdjust="spacing" textLength="97" x="455.5" y="291.292">SUBMITTABLE</text></g><g id="EDITABLE"><rect fill="#FEFECE" filter="url(#fz60wxyvf42bp)" height="50" rx="12.5" ry="12.5" style="stroke:#A80036;stroke-width:1.5;" width="87" x="460.5" y="400.2969"/><line style="stroke:#A80036;stroke-width:1.5;" x1="460.5" x2="547.5" y1="426.5938" y2="426.5938"/><text fill="#000000" font-family="sans-serif" font-size="14" lengthAdjust="spacing" textLength="67" x="470.5" y="418.292">EDITABLE</text></g><g id="PENDING_DID"><rect fill="#FEFECE" filter="url(#fz60wxyvf42bp)" height="50" rx="12.5" ry="12.5" style="stroke:#A80036;stroke-width:1.5;" width="115" x="201.5" y="781.2969"/><line style="stroke:#A80036;stroke-width:1.5;" x1="201.5" x2="316.5" y1="807.5938" y2="807.5938"/><text fill="#000000" font-family="sans-serif" font-size="14" lengthAdjust="spacing" textLength="95" x="211.5" y="799.292">PENDING_DID</text></g><g id="TERMINATED"><rect fill="#FEFECE" filter="url(#fz60wxyvf42bp)" height="50" rx="12.5" ry="12.5" style="stroke:#A80036;stroke-width:1.5;" width="111" x="81.5" y="1162.2969"/><line style="stroke:#A80036;stroke-width:1.5;" x1="81.5" x2="192.5" y1="1188.5938" y2="1188.5938"/><text fill="#000000" font-family="sans-serif" font-size="14" lengthAdjust="spacing" textLength="91" x="91.5" y="1180.292">TERMINATED</text></g><g id="READY_FOR_REVIEW"><rect fill="#FEFECE" filter="url(#fz60wxyvf42bp)" height="50" rx="12.5" ry="12.5" style="stroke:#A80036;stroke-width:1.5;" width="164" x="260" y="527.2969"/><line style="stroke:#A80036;stroke-width:1.5;" x1="260" x2="424" y1="553.5938" y2="553.5938"/><text fill="#000000" font-family="sans-serif" font-size="14" lengthAdjust="spacing" textLength="144" x="270" y="545.292">READY_FOR_REVIEW</text></g><g id="WORK_IN_PROGRESS"><rect fill="#FEFECE" filter="url(#fz60wxyvf42bp)" height="50" rx="12.5" ry="12.5" style="stroke:#A80036;stroke-width:1.5;" width="168" x="392" y="654.2969"/><line style="stroke:#A80036;stroke-width:1.5;" x1="392" x2="560" y1="680.5938" y2="680.5938"/><text fill="#000000" font-family="sans-serif" font-size="14" lengthAdjust="spacing" textLength="148" x="402" y="672.292">WORK_IN_PROGRESS</text></g><g id="ACCEPTED"><rect fill="#FEFECE" filter="url(#fz60wxyvf42bp)" height="50" rx="12.5" ry="12.5" style="stroke:#A80036;stroke-width:1.5;" width="96" x="388" y="1035.2969"/><line style="stroke:#A80036;stroke-width:1.5;" x1="388" x2="484" y1="1061.5938" y2="1061.5938"/><text fill="#000000" font-family="sans-serif" font-size="14" lengthAdjust="spacing" textLength="76" x="398" y="1053.292">ACCEPTED</text></g><g id="PENDING_REQUESTOR_RELEASE"><rect fill="#FEFECE" filter="url(#fz60wxyvf42bp)" height="50" rx="12.5" ry="12.5" style="stroke:#A80036;stroke-width:1.5;" width="247" x="352.5" y="908.2969"/><line style="stroke:#A80036;stroke-width:1.5;" x1="352.5" x2="599.5" y1="934.5938" y2="934.5938"/><text fill="#000000" font-family="sans-serif" font-size="14" lengthAdjust="spacing" textLength="227" x="362.5" y="926.292">PENDING_REQUESTOR_RELEASE</text></g><g id="ISSUED"><rect fill="#FEFECE" filter="url(#fz60wxyvf42bp)" height="50" rx="12.5" ry="12.5" style="stroke:#A80036;stroke-width:1.5;" width="71" x="400.5" y="1162.2969"/><line style="stroke:#A80036;stroke-width:1.5;" x1="400.5" x2="471.5" y1="1188.5938" y2="1188.5938"/><text fill="#000000" font-family="sans-serif" font-size="14" lengthAdjust="spacing" textLength="51" x="410.5" y="1180.292">ISSUED</text></g><!--MD5=[92e73ed3c233abf4de5b14700e30a712]
link *start to CREATED--><path d="M496.37,66.2069 C477.99,80.4469 430.34,117.3569 397.04,143.1569 " fill="none" id="*start-to-CREATED" style="stroke:#A80036;stroke-width:1.0;"/><polygon fill="#A80036" points="393.05,146.2469,402.6123,143.8884,396.9998,143.1811,397.7071,137.5687,393.05,146.2469" style="stroke:#A80036;stroke-width:1.0;"/><text fill="#000000" font-family="sans-serif" font-size="13" lengthAdjust="spacing" textLength="91" x="451" y="112.3638">createSession</text><!--MD5=[5b02d522e841570c16535f0b708e5ade]
link *start to SUBMITTABLE--><path d="M512.43,64.9169 C531.52,75.9469 577.6,105.9469 593,146.2969 C608.37,186.5769 613.45,205.8969 592,243.2969 C585.78,254.1369 576.42,263.0869 566.09,270.3569 " fill="none" id="*start-to-SUBMITTABLE" style="stroke:#A80036;stroke-width:1.0;"/><polygon fill="#A80036" points="561.93,273.1669,571.6265,271.4413,566.0726,270.3671,567.1468,264.8131,561.93,273.1669" style="stroke:#A80036;stroke-width:1.0;"/><text fill="#000000" font-family="sans-serif" font-size="13" lengthAdjust="spacing" textLength="91" x="608" y="175.8638">createSession</text><!--MD5=[ecc98badf6e84ab1326545f64f34c004]
link CREATED to CREATED--><path d="M405.59,159.8069 C424.4,158.8669 440.5,162.6969 440.5,171.2969 C440.5,179.0869 427.28,182.9669 410.8,182.9169 " fill="none" id="CREATED-to-CREATED" style="stroke:#A80036;stroke-width:1.0;"/><polygon fill="#A80036" points="405.59,182.7869,414.4721,187.0423,410.588,182.9297,414.7006,179.0455,405.59,182.7869" style="stroke:#A80036;stroke-width:1.0;"/><text fill="#000000" font-family="sans-serif" font-size="13" lengthAdjust="spacing" textLength="140" x="446.5" y="175.8638">finishTaskSuccessfully</text><!--MD5=[bb92910e0ce8bb7e6949e70abe168218]
link CREATED to SUBMITTABLE--><path d="M389.38,196.3969 C413.25,217.4069 447.85,247.8769 472.79,269.8269 " fill="none" id="CREATED-to-SUBMITTABLE" style="stroke:#A80036;stroke-width:1.0;"/><polygon fill="#A80036" points="476.71,273.2669,472.6046,264.3145,472.9596,269.9602,467.3139,270.3152,476.71,273.2669" style="stroke:#A80036;stroke-width:1.0;"/><text fill="#000000" font-family="sans-serif" font-size="13" lengthAdjust="spacing" textLength="140" x="443" y="239.3638">finishTaskSuccessfully</text><!--MD5=[acd2104b49dac15997ecbff4f8bbf35f]
link SUBMITTABLE to EDITABLE--><path d="M504,323.3969 C504,343.8869 504,373.3769 504,395.1769 " fill="none" id="SUBMITTABLE-to-EDITABLE" style="stroke:#A80036;stroke-width:1.0;"/><polygon fill="#A80036" points="504,400.2669,508,391.2669,504,395.2669,500,391.2669,504,400.2669" style="stroke:#A80036;stroke-width:1.0;"/><text fill="#000000" font-family="sans-serif" font-size="13" lengthAdjust="spacing" textLength="96" x="505" y="366.3638">submitRequest</text><!--MD5=[5a66c90934d6dec1ffd597adacdcdbf8]
link PENDING_DID to TERMINATED--><path d="M236.77,831.3769 C229.57,840.2469 222.13,850.7169 217,861.2969 C167.56,963.3269 147.01,1098.6169 140.03,1157.1969 " fill="none" id="PENDING_DID-to-TERMINATED" style="stroke:#A80036;stroke-width:1.0;"/><polygon fill="#A80036" points="139.44,1162.2969,144.4416,1153.8125,140.011,1157.3296,136.4939,1152.899,139.44,1162.2969" style="stroke:#A80036;stroke-width:1.0;"/><text fill="#000000" font-family="sans-serif" font-size="13" lengthAdjust="spacing" textLength="50" x="173" y="1001.3638">timeout</text><!--MD5=[155f00b88a5fa3a246f070467937281d]
link EDITABLE to EDITABLE--><path d="M547.59,413.8069 C566.4,412.8669 582.5,416.6969 582.5,425.2969 C582.5,433.0869 569.28,436.9669 552.8,436.9169 " fill="none" id="EDITABLE-to-EDITABLE" style="stroke:#A80036;stroke-width:1.0;"/><polygon fill="#A80036" points="547.59,436.7869,556.4721,441.0423,552.588,436.9297,556.7006,433.0455,547.59,436.7869" style="stroke:#A80036;stroke-width:1.0;"/><text fill="#000000" font-family="sans-serif" font-size="13" lengthAdjust="spacing" textLength="97" x="588.5" y="429.8638">updateRequest</text><!--MD5=[dc0b976df1419b37d1203bb8ece060b5]
link EDITABLE to READY_FOR_REVIEW--><path d="M475.35,450.4069 C458.55,464.3569 436.8,482.1069 417,497.2969 C405.32,506.2569 392.38,515.7269 380.58,524.1969 " fill="none" id="EDITABLE-to-READY_FOR_REVIEW" style="stroke:#A80036;stroke-width:1.0;"/><polygon fill="#A80036" points="376.29,527.2669,385.9366,525.2811,380.3558,524.3566,381.2802,518.7758,376.29,527.2669" style="stroke:#A80036;stroke-width:1.0;"/><text fill="#000000" font-family="sans-serif" font-size="13" lengthAdjust="spacing" textLength="72" x="438" y="493.3638">markReady</text><!--MD5=[a7a8e38d0db26cde0b67801cf663dae3]
link READY_FOR_REVIEW to EDITABLE--><path d="M324.33,527.0569 C315.96,512.3869 309.79,493.9369 320,480.2969 C336.25,458.5869 406.33,442.6469 455.15,433.9169 " fill="none" id="READY_FOR_REVIEW-to-EDITABLE" style="stroke:#A80036;stroke-width:1.0;"/><polygon fill="#A80036" points="460.1,433.0369,450.541,430.665,455.1764,433.9074,451.9339,438.5428,460.1,433.0369" style="stroke:#A80036;stroke-width:1.0;"/><text fill="#000000" font-family="sans-serif" font-size="13" lengthAdjust="spacing" textLength="87" x="321" y="493.3638">markUnready</text><!--MD5=[8e75038146772daec0f748de58d54aa4]
link READY_FOR_REVIEW to TERMINATED--><path d="M259.81,567.0569 C160.33,586.0769 6,624.3069 6,678.2969 C6,678.2969 6,678.2969 6,1061.2969 C6,1105.0669 44.76,1138.2069 80.11,1159.3269 " fill="none" id="READY_FOR_REVIEW-to-TERMINATED" style="stroke:#A80036;stroke-width:1.0;"/><polygon fill="#A80036" points="84.85,1162.0969,79.1079,1154.0951,80.5363,1159.5686,75.0627,1160.997,84.85,1162.0969" style="stroke:#A80036;stroke-width:1.0;"/><text fill="#000000" font-family="sans-serif" font-size="13" lengthAdjust="spacing" textLength="92" x="7" y="874.3638">deleteRequest</text><!--MD5=[9d60c917e254697a96c9ebc78e46b707]
link EDITABLE to TERMINATED--><path d="M547.52,427.3769 C623.65,431.8269 773,453.0669 773,551.2969 C773,551.2969 773,551.2969 773,1061.2969 C773,1119.5669 356.66,1165.3769 197.69,1180.7369 " fill="none" id="EDITABLE-to-TERMINATED" style="stroke:#A80036;stroke-width:1.0;"/><polygon fill="#A80036" points="192.61,1181.2269,201.9554,1184.3354,197.5864,1180.7421,201.1797,1176.3731,192.61,1181.2269" style="stroke:#A80036;stroke-width:1.0;"/><text fill="#000000" font-family="sans-serif" font-size="13" lengthAdjust="spacing" textLength="92" x="774" y="810.8638">deleteRequest</text><!--MD5=[67f90f2fd682947db275f778d6f114c9]
link READY_FOR_REVIEW to WORK_IN_PROGRESS--><path d="M351.65,577.4669 C358.47,592.2969 368.75,610.9369 382,624.2969 C392.48,634.8669 405.45,644.0569 418.38,651.7069 " fill="none" id="READY_FOR_REVIEW-to-WORK_IN_PROGRESS" style="stroke:#A80036;stroke-width:1.0;"/><polygon fill="#A80036" points="422.75,654.2469,416.957,646.2819,418.4203,651.7462,412.9559,653.2095,422.75,654.2469" style="stroke:#A80036;stroke-width:1.0;"/><text fill="#000000" font-family="sans-serif" font-size="13" lengthAdjust="spacing" textLength="143" x="383" y="620.3638">claimAvailableRequest</text><!--MD5=[801fa7a6ad16036e556b3ca85a81245c]
link WORK_IN_PROGRESS to EDITABLE--><path d="M508.93,654.1869 C517.79,645.8169 526.24,635.6469 531,624.2969 C554.73,567.7369 532.8,494.8469 516.96,455.1769 " fill="none" id="WORK_IN_PROGRESS-to-EDITABLE" style="stroke:#A80036;stroke-width:1.0;"/><polygon fill="#A80036" points="515.07,450.5069,514.7613,460.3509,516.9565,455.1373,522.17,457.3325,515.07,450.5069" style="stroke:#A80036;stroke-width:1.0;"/><text fill="#000000" font-family="sans-serif" font-size="13" lengthAdjust="spacing" textLength="88" x="543" y="556.8638">rejectRequest</text><!--MD5=[a73b5ba9b614bc3ab2a17d88a30a168d]
link WORK_IN_PROGRESS to ACCEPTED--><path d="M509.42,704.6169 C532.66,723.1869 562.65,750.7169 581,781.2969 C622.31,850.1269 648.86,884.6169 617,958.2969 C595.02,1009.1269 534.06,1035.3469 488.92,1048.1669 " fill="none" id="WORK_IN_PROGRESS-to-ACCEPTED" style="stroke:#A80036;stroke-width:1.0;"/><polygon fill="#A80036" points="484.06,1049.5169,493.7998,1050.9786,488.8798,1048.1868,491.6716,1043.2668,484.06,1049.5169" style="stroke:#A80036;stroke-width:1.0;"/><text fill="#000000" font-family="sans-serif" font-size="13" lengthAdjust="spacing" textLength="95" x="630" y="874.3638">acceptRequest</text><!--MD5=[97ff2a7e5c5a4abd968fa7270e922d66]
link WORK_IN_PROGRESS to PENDING_DID--><path d="M413.61,704.3469 C393.75,712.8769 372.01,723.1469 353,734.2969 C331.35,746.9869 308.86,763.8269 291.3,777.9269 " fill="none" id="WORK_IN_PROGRESS-to-PENDING_DID" style="stroke:#A80036;stroke-width:1.0;"/><polygon fill="#A80036" points="287.41,781.0669,296.9287,778.5383,291.3045,777.9312,291.9116,772.307,287.41,781.0669" style="stroke:#A80036;stroke-width:1.0;"/><text fill="#000000" font-family="sans-serif" font-size="13" lengthAdjust="spacing" textLength="95" x="354" y="747.3638">acceptRequest</text><!--MD5=[10323da585a68d00c3c34b819924f76e]
link WORK_IN_PROGRESS to PENDING_REQUESTOR_RELEASE--><path d="M476,704.4569 C476,750.9369 476,852.6169 476,902.9169 " fill="none" id="WORK_IN_PROGRESS-to-PENDING_REQUESTOR_RELEASE" style="stroke:#A80036;stroke-width:1.0;"/><polygon fill="#A80036" points="476,908.2069,480,899.2069,476,903.2069,472,899.2069,476,908.2069" style="stroke:#A80036;stroke-width:1.0;"/><text fill="#000000" font-family="sans-serif" font-size="13" lengthAdjust="spacing" textLength="95" x="477" y="810.8638">acceptRequest</text><!--MD5=[26ece903c4ba54d04827593ed8f9cb4d]
link PENDING_REQUESTOR_RELEASE to ACCEPTED--><path d="M468.29,958.3969 C461.7,978.9769 452.22,1008.6269 445.23,1030.4569 " fill="none" id="PENDING_REQUESTOR_RELEASE-to-ACCEPTED" style="stroke:#A80036;stroke-width:1.0;"/><polygon fill="#A80036" points="443.69,1035.2669,450.2314,1027.9042,445.2066,1030.5024,442.6083,1025.4776,443.69,1035.2669" style="stroke:#A80036;stroke-width:1.0;"/><text fill="#000000" font-family="sans-serif" font-size="13" lengthAdjust="spacing" textLength="98" x="460" y="1001.3638">manualRelease</text><!--MD5=[34ab0a51c7c4088a299962a28a04f77d]
link PENDING_DID to ACCEPTED--><path d="M244.3,831.4369 C227.2,862.9569 204.29,918.7469 229,958.2969 C262.39,1011.7369 333.11,1037.6569 382.55,1049.6869 " fill="none" id="PENDING_DID-to-ACCEPTED" style="stroke:#A80036;stroke-width:1.0;"/><polygon fill="#A80036" points="387.57,1050.8769,379.7381,1044.9052,382.7054,1049.7213,377.8892,1052.6886,387.57,1050.8769" style="stroke:#A80036;stroke-width:1.0;"/><text fill="#000000" font-family="sans-serif" font-size="13" lengthAdjust="spacing" textLength="104" x="230" y="937.8638">assignDidHolder</text><!--MD5=[f846559a06b5ecd805136140d30e0e10]
link PENDING_DID to PENDING_REQUESTOR_RELEASE--><path d="M283.84,831.5769 C300.01,846.4569 322.09,865.1069 344,878.2969 C361.7,888.9569 381.88,898.3969 401.04,906.2969 " fill="none" id="PENDING_DID-to-PENDING_REQUESTOR_RELEASE" style="stroke:#A80036;stroke-width:1.0;"/><polygon fill="#A80036" points="405.89,908.2669,399.0567,901.1742,401.2575,906.3854,396.0463,908.5862,405.89,908.2669" style="stroke:#A80036;stroke-width:1.0;"/><text fill="#000000" font-family="sans-serif" font-size="13" lengthAdjust="spacing" textLength="104" x="345" y="874.3638">assignDidHolder</text><!--MD5=[ed682eebbd62e2c3da9ea6ba7ef53c2f]
link ACCEPTED to ISSUED--><path d="M436,1085.3969 C436,1105.8869 436,1135.3769 436,1157.1769 " fill="none" id="ACCEPTED-to-ISSUED" style="stroke:#A80036;stroke-width:1.0;"/><polygon fill="#A80036" points="436,1162.2669,440,1153.2669,436,1157.2669,432,1153.2669,436,1162.2669" style="stroke:#A80036;stroke-width:1.0;"/><text fill="#000000" font-family="sans-serif" font-size="13" lengthAdjust="spacing" textLength="95" x="437" y="1128.3638">issuanceResult</text><!--MD5=[7d97283a59434653a4d60b0cbda084dd]
link ACCEPTED to TERMINATED--><path d="M387.96,1081.3769 C336.1,1103.0669 253.39,1137.6369 197.22,1161.1169 " fill="none" id="ACCEPTED-to-TERMINATED" style="stroke:#A80036;stroke-width:1.0;"/><polygon fill="#A80036" points="192.55,1163.0769,202.3964,1163.2968,197.1633,1161.1487,199.3114,1155.9156,192.55,1163.0769" style="stroke:#A80036;stroke-width:1.0;"/><text fill="#000000" font-family="sans-serif" font-size="13" lengthAdjust="spacing" textLength="95" x="306" y="1128.3638">issuanceResult</text><!--MD5=[ab5b3bd534501f04a8788da3f5c29c9f]
@startuml

skinparam componentStyle uml2

[*] - -> CREATED : createSession
[*] - -> SUBMITTABLE : createSession
CREATED - -> CREATED : finishTaskSuccessfully
CREATED - -> SUBMITTABLE : finishTaskSuccessfully
SUBMITTABLE - -> EDITABLE : submitRequest
PENDING_DID - -> TERMINATED : timeout
EDITABLE - -> EDITABLE : updateRequest
EDITABLE - -> READY_FOR_REVIEW : markReady
READY_FOR_REVIEW - -> EDITABLE : markUnready
READY_FOR_REVIEW - -> TERMINATED : deleteRequest
EDITABLE - -> TERMINATED : deleteRequest
READY_FOR_REVIEW - -> WORK_IN_PROGRESS : claimAvailableRequest
WORK_IN_PROGRESS - -> EDITABLE : rejectRequest
WORK_IN_PROGRESS - -> ACCEPTED : acceptRequest
WORK_IN_PROGRESS - -> PENDING_DID : acceptRequest
WORK_IN_PROGRESS - -> PENDING_REQUESTOR_RELEASE : acceptRequest
PENDING_REQUESTOR_RELEASE - -> ACCEPTED : manualRelease
PENDING_DID - -> ACCEPTED : assignDidHolder
PENDING_DID - -> PENDING_REQUESTOR_RELEASE : assignDidHolder
ACCEPTED - -> ISSUED : issuanceResult
ACCEPTED - -> TERMINATED : issuanceResult


legend top center
  NotarizationRequestSubmissionFlow State Transitions
endlegend

@enduml

PlantUML version 1.2022.0(Tue Jan 11 17:16:42 CET 2022)
(GPL source distribution)
Java Runtime: OpenJDK Runtime Environment
JVM: OpenJDK 64-Bit Server VM
Default Encoding: UTF-8
Language: en
Country: US
--></g></svg>