<?xml version="1.0" encoding="UTF-8" standalone="no"?><svg xmlns="http://www.w3.org/2000/svg" xmlns:xlink="http://www.w3.org/1999/xlink" contentScriptType="application/ecmascript" contentStyleType="text/css" height="466px" preserveAspectRatio="none" style="width:873px;height:466px;background:#FFFFFF;" version="1.1" viewBox="0 0 873 466" width="873px" zoomAndPan="magnify"><defs><filter height="300%" id="f3v38f2bn15dt" width="300%" x="-1" y="-1"><feGaussianBlur result="blurOut" stdDeviation="2.0"/><feColorMatrix in="blurOut" result="blurOut2" type="matrix" values="0 0 0 0 0 0 0 0 0 0 0 0 0 0 0 0 0 0 .4 0"/><feOffset dx="4.0" dy="4.0" in="blurOut2" result="blurOut3"/><feBlend in="SourceGraphic" in2="blurOut3" mode="normal"/></filter></defs><g><!--MD5=[a0a48a68bf1fc1c40d38690412f65adb]
cluster 'NotificationAggregate' Aggregate--><rect fill="#FFFFFF" filter="url(#f3v38f2bn15dt)" height="447" style="stroke:#000000;stroke-width:1.5;" width="854" x="7" y="7"/><text fill="#000000" font-family="sans-serif" font-size="14" font-weight="bold" lengthAdjust="spacing" textLength="268" x="300" y="21.9951">'NotificationAggregate' Aggregate</text><!--MD5=[28777410eb9cddc1924e3370c88e3c61]
class SessionId--><rect codeLine="5" fill="#FEFECE" filter="url(#f3v38f2bn15dt)" height="66.7422" id="SessionId" style="stroke:#A80036;stroke-width:1.5;" width="120" x="40" y="329.5"/><ellipse cx="55" cy="348.4688" fill="#8FBC8F" rx="11" ry="11" style="stroke:#A80036;stroke-width:1.0;"/><path d="M55.1094,352.9219 L57.2969,342.5781 L59.7656,342.5781 L56.8125,354.9688 L53.4219,354.9688 L50.4688,342.5781 L52.9375,342.5781 L55.1094,352.9219 Z " fill="#000000"/><text fill="#000000" font-family="sans-serif" font-size="12" font-style="italic" lengthAdjust="spacing" textLength="92" x="67" y="345.6387">«Value Object»</text><text fill="#000000" font-family="sans-serif" font-size="12" lengthAdjust="spacing" textLength="60" x="83" y="359.6074">SessionId</text><line style="stroke:#A80036;stroke-width:1.5;" x1="41" x2="159" y1="367.4375" y2="367.4375"/><text fill="#000000" font-family="sans-serif" font-size="11" lengthAdjust="spacing" textLength="48" x="46" y="381.6479">String id</text><line style="stroke:#A80036;stroke-width:1.5;" x1="41" x2="159" y1="388.2422" y2="388.2422"/><!--MD5=[e5dce6e80de7280160d8cf3e5e1b6f22]
class NotarizationRequestId--><rect codeLine="8" fill="#FEFECE" filter="url(#f3v38f2bn15dt)" height="66.7422" id="NotarizationRequestId" style="stroke:#A80036;stroke-width:1.5;" width="170" x="195" y="329.5"/><ellipse cx="210" cy="348.4688" fill="#8FBC8F" rx="11" ry="11" style="stroke:#A80036;stroke-width:1.0;"/><path d="M210.1094,352.9219 L212.2969,342.5781 L214.7656,342.5781 L211.8125,354.9688 L208.4219,354.9688 L205.4688,342.5781 L207.9375,342.5781 L210.1094,352.9219 Z " fill="#000000"/><text fill="#000000" font-family="sans-serif" font-size="12" font-style="italic" lengthAdjust="spacing" textLength="92" x="247" y="345.6387">«Value Object»</text><text fill="#000000" font-family="sans-serif" font-size="12" lengthAdjust="spacing" textLength="138" x="224" y="359.6074">NotarizationRequestId</text><line style="stroke:#A80036;stroke-width:1.5;" x1="196" x2="364" y1="367.4375" y2="367.4375"/><text fill="#000000" font-family="sans-serif" font-size="11" lengthAdjust="spacing" textLength="41" x="201" y="381.6479">UUID id</text><line style="stroke:#A80036;stroke-width:1.5;" x1="196" x2="364" y1="388.2422" y2="388.2422"/><!--MD5=[b6d721c423ed53bb9d7ed9bc47cb762c]
class ProfileId--><rect codeLine="11" fill="#FEFECE" filter="url(#f3v38f2bn15dt)" height="66.7422" id="ProfileId" style="stroke:#A80036;stroke-width:1.5;" width="120" x="437" y="329.5"/><ellipse cx="452" cy="348.4688" fill="#8FBC8F" rx="11" ry="11" style="stroke:#A80036;stroke-width:1.0;"/><path d="M452.1094,352.9219 L454.2969,342.5781 L456.7656,342.5781 L453.8125,354.9688 L450.4219,354.9688 L447.4688,342.5781 L449.9375,342.5781 L452.1094,352.9219 Z " fill="#000000"/><text fill="#000000" font-family="sans-serif" font-size="12" font-style="italic" lengthAdjust="spacing" textLength="92" x="464" y="345.6387">«Value Object»</text><text fill="#000000" font-family="sans-serif" font-size="12" lengthAdjust="spacing" textLength="50" x="485" y="359.6074">ProfileId</text><line style="stroke:#A80036;stroke-width:1.5;" x1="438" x2="556" y1="367.4375" y2="367.4375"/><text fill="#000000" font-family="sans-serif" font-size="11" lengthAdjust="spacing" textLength="48" x="443" y="381.6479">String id</text><line style="stroke:#A80036;stroke-width:1.5;" x1="438" x2="556" y1="388.2422" y2="388.2422"/><!--MD5=[77e88f9fd2fdbde571cf3dfde6a9d1c3]
class EvtRequestorMessage--><rect codeLine="14" fill="#FEFECE" filter="url(#f3v38f2bn15dt)" height="92.3516" id="EvtRequestorMessage" style="stroke:#A80036;stroke-width:1.5;" width="172" x="673" y="80.5"/><ellipse cx="688" cy="99.4688" fill="#8FBC8F" rx="11" ry="11" style="stroke:#A80036;stroke-width:1.0;"/><path d="M688.1094,103.9219 L690.2969,93.5781 L692.7656,93.5781 L689.8125,105.9688 L686.4219,105.9688 L683.4688,93.5781 L685.9375,93.5781 L688.1094,103.9219 Z " fill="#000000"/><text fill="#000000" font-family="sans-serif" font-size="12" font-style="italic" lengthAdjust="spacing" textLength="92" x="726" y="96.6387">«Value Object»</text><text fill="#000000" font-family="sans-serif" font-size="12" lengthAdjust="spacing" textLength="140" x="702" y="110.6074">EvtRequestorMessage</text><line style="stroke:#A80036;stroke-width:1.5;" x1="674" x2="844" y1="118.4375" y2="118.4375"/><text fill="#000000" font-family="sans-serif" font-size="11" lengthAdjust="spacing" textLength="48" x="679" y="132.6479">String id</text><text fill="#000000" font-family="sans-serif" font-size="11" lengthAdjust="spacing" textLength="82" x="679" y="145.4526">String payload</text><text fill="#000000" font-family="sans-serif" font-size="11" lengthAdjust="spacing" textLength="79" x="679" y="158.2573">MsgType msg</text><line style="stroke:#A80036;stroke-width:1.5;" x1="674" x2="844" y1="164.8516" y2="164.8516"/><!--MD5=[f195427f47077d7f6e6a8db1bc46f671]
class EvtOperatorMessage--><rect codeLine="19" fill="#FEFECE" filter="url(#f3v38f2bn15dt)" height="92.3516" id="EvtOperatorMessage" style="stroke:#A80036;stroke-width:1.5;" width="163" x="474.5" y="80.5"/><ellipse cx="489.5" cy="99.4688" fill="#8FBC8F" rx="11" ry="11" style="stroke:#A80036;stroke-width:1.0;"/><path d="M489.6094,103.9219 L491.7969,93.5781 L494.2656,93.5781 L491.3125,105.9688 L487.9219,105.9688 L484.9688,93.5781 L487.4375,93.5781 L489.6094,103.9219 Z " fill="#000000"/><text fill="#000000" font-family="sans-serif" font-size="12" font-style="italic" lengthAdjust="spacing" textLength="92" x="523" y="96.6387">«Value Object»</text><text fill="#000000" font-family="sans-serif" font-size="12" lengthAdjust="spacing" textLength="131" x="503.5" y="110.6074">EvtOperatorMessage</text><line style="stroke:#A80036;stroke-width:1.5;" x1="475.5" x2="636.5" y1="118.4375" y2="118.4375"/><text fill="#000000" font-family="sans-serif" font-size="11" lengthAdjust="spacing" textLength="48" x="480.5" y="132.6479">String id</text><text fill="#000000" font-family="sans-serif" font-size="11" lengthAdjust="spacing" textLength="79" x="480.5" y="145.4526">MsgType msg</text><text fill="#000000" font-family="sans-serif" font-size="11" lengthAdjust="spacing" textLength="96" x="480.5" y="158.2573">ProfileId profileId</text><line style="stroke:#A80036;stroke-width:1.5;" x1="475.5" x2="636.5" y1="164.8516" y2="164.8516"/><!--MD5=[77d39211d49236b154f8310805095e06]
class MsgType--><rect codeLine="24" fill="#FEFECE" filter="url(#f3v38f2bn15dt)" height="150.4375" id="MsgType" style="stroke:#A80036;stroke-width:1.5;" width="211" x="611.5" y="288"/><ellipse cx="685.75" cy="304" fill="#EB937F" rx="11" ry="11" style="stroke:#A80036;stroke-width:1.0;"/><path d="M689.8594,310 L682.1406,310 L682.1406,297.6094 L689.8594,297.6094 L689.8594,299.7656 L684.5938,299.7656 L684.5938,302.4375 L689.3594,302.4375 L689.3594,304.5938 L684.5938,304.5938 L684.5938,307.8438 L689.8594,307.8438 L689.8594,310 Z " fill="#000000"/><text fill="#000000" font-family="sans-serif" font-size="12" lengthAdjust="spacing" textLength="54" x="706.25" y="308.1543">MsgType</text><line style="stroke:#A80036;stroke-width:1.5;" x1="612.5" x2="821.5" y1="320" y2="320"/><text fill="#000000" font-family="sans-serif" font-size="11" lengthAdjust="spacing" textLength="110" x="617.5" y="334.2104">READY_FOR_REVIEW</text><text fill="#000000" font-family="sans-serif" font-size="11" lengthAdjust="spacing" textLength="113" x="617.5" y="347.0151">REQUEST_REJECTED</text><text fill="#000000" font-family="sans-serif" font-size="11" lengthAdjust="spacing" textLength="199" x="617.5" y="359.8198">REQUEST_ACCEPTED_PENDING_DID</text><text fill="#000000" font-family="sans-serif" font-size="11" lengthAdjust="spacing" textLength="118" x="617.5" y="372.6245">REQUEST_ACCEPTED</text><text fill="#000000" font-family="sans-serif" font-size="11" lengthAdjust="spacing" textLength="109" x="617.5" y="385.4292">REQUEST_DELETED</text><text fill="#000000" font-family="sans-serif" font-size="11" lengthAdjust="spacing" textLength="129" x="617.5" y="398.2339">REQUEST_TERMINATED</text><text fill="#000000" font-family="sans-serif" font-size="11" lengthAdjust="spacing" textLength="148" x="617.5" y="411.0386">EXTERNAL_TASK_STARTED</text><text fill="#000000" font-family="sans-serif" font-size="11" lengthAdjust="spacing" textLength="104" x="617.5" y="423.8433">CONTACT_UPDATE</text><line style="stroke:#A80036;stroke-width:1.5;" x1="612.5" x2="821.5" y1="430.4375" y2="430.4375"/><!--MD5=[ddb9573b2904acf849f5ae910e39bb2a]
class FrontEndMessageService--><rect codeLine="34" fill="#FEFECE" filter="url(#f3v38f2bn15dt)" height="169.1797" id="FrontEndMessageService" style="stroke:#A80036;stroke-width:1.5;" width="417" x="22.5" y="42"/><ellipse cx="147.75" cy="60.9688" fill="#8FBC8F" rx="11" ry="11" style="stroke:#A80036;stroke-width:1.0;"/><path d="M147.2344,61.5313 Q145.375,60.8281 144.7188,60.0625 Q144.0781,59.2813 144.0781,57.9688 Q144.0781,56.2813 145.1563,55.3125 Q146.2344,54.3438 148.1094,54.3438 Q148.9688,54.3438 149.8125,54.5469 Q150.6719,54.7344 151.5156,55.125 L151.5156,57.5156 Q150.7344,56.9531 149.9063,56.6719 Q149.0938,56.375 148.2969,56.375 Q147.4219,56.375 146.9375,56.7344 Q146.4688,57.0938 146.4688,57.75 Q146.4688,58.2656 146.8125,58.6094 Q147.1563,58.9375 148.25,59.3438 L149.3125,59.75 Q150.7969,60.2969 151.5,61.2031 Q152.2188,62.1094 152.2188,63.4844 Q152.2188,65.3594 151.1094,66.2813 Q150,67.2031 147.75,67.2031 Q146.8281,67.2031 145.9063,66.9844 Q144.9844,66.7656 144.125,66.3438 L144.125,63.8125 Q145.0938,64.5 146.0156,64.8438 Q146.9375,65.1875 147.8281,65.1875 Q148.7344,65.1875 149.2344,64.7813 Q149.7344,64.3594 149.7344,63.625 Q149.7344,63.0625 149.3906,62.6563 Q149.0625,62.2344 148.4375,61.9844 L147.2344,61.5313 Z " fill="#000000"/><text fill="#000000" font-family="sans-serif" font-size="12" font-style="italic" lengthAdjust="spacing" textLength="59" x="217.75" y="58.1387">«Service»</text><text fill="#000000" font-family="sans-serif" font-size="12" lengthAdjust="spacing" textLength="158" x="168.25" y="72.1074">FrontEndMessageService</text><line style="stroke:#A80036;stroke-width:1.5;" x1="23.5" x2="438.5" y1="79.9375" y2="79.9375"/><line style="stroke:#A80036;stroke-width:1.5;" x1="23.5" x2="438.5" y1="87.9375" y2="87.9375"/><text fill="#000000" font-family="sans-serif" font-size="11" lengthAdjust="spacing" textLength="405" x="28.5" y="102.1479">void onReadyForReview(NotarizationRequestId request, ProfileId profile)</text><text fill="#000000" font-family="sans-serif" font-size="11" lengthAdjust="spacing" textLength="207" x="28.5" y="114.9526">void onRejected(SessionId identifier)</text><text fill="#000000" font-family="sans-serif" font-size="11" lengthAdjust="spacing" textLength="222" x="28.5" y="127.7573">void onPendingDid(SessionId identifier)</text><text fill="#000000" font-family="sans-serif" font-size="11" lengthAdjust="spacing" textLength="210" x="28.5" y="140.562">void onAccepted(SessionId identifier)</text><text fill="#000000" font-family="sans-serif" font-size="11" lengthAdjust="spacing" textLength="302" x="28.5" y="153.3667">void onAccepted(SessionId identifier, String inviteUrl)</text><text fill="#000000" font-family="sans-serif" font-size="11" lengthAdjust="spacing" textLength="306" x="28.5" y="166.1714">void onExternalTask(SessionId identifier, URI redirect)</text><text fill="#000000" font-family="sans-serif" font-size="11" lengthAdjust="spacing" textLength="329" x="28.5" y="178.9761">void onContactUpdate(SessionId identifier, String contact)</text><text fill="#000000" font-family="sans-serif" font-size="11" lengthAdjust="spacing" textLength="202" x="28.5" y="191.7808">void onDeleted(SessionId identifier)</text><text fill="#000000" font-family="sans-serif" font-size="11" lengthAdjust="spacing" textLength="224" x="28.5" y="204.5854">void onTerminated(SessionId identifier)</text><!--MD5=[74c93d5e1bc8384244f13a75b59ab36d]
link EvtRequestorMessage to MsgType--><path codeLine="46" d="M750.9,172.71 C745.34,203.79 737.79,245.9 731.24,282.5 " fill="none" id="EvtRequestorMessage-to-MsgType" style="stroke:#A80036;stroke-width:1.0;"/><polygon fill="#A80036" points="730.28,287.86,735.8129,279.7122,731.1669,282.9393,727.9398,278.2932,730.28,287.86" style="stroke:#A80036;stroke-width:1.0;"/><text fill="#000000" font-family="sans-serif" font-size="13" lengthAdjust="spacing" textLength="28" x="739" y="254.0669">msg</text><!--MD5=[0dcef668e27a3774da37b01e7496bf29]
link EvtOperatorMessage to MsgType--><path codeLine="47" d="M587.04,172.71 C608.56,204.05 637.76,246.59 663.04,283.4 " fill="none" id="EvtOperatorMessage-to-MsgType" style="stroke:#A80036;stroke-width:1.0;"/><polygon fill="#A80036" points="666.1,287.86,664.2974,278.1775,663.2674,283.7398,657.7051,282.7097,666.1,287.86" style="stroke:#A80036;stroke-width:1.0;"/><text fill="#000000" font-family="sans-serif" font-size="13" lengthAdjust="spacing" textLength="28" x="642" y="254.0669">msg</text><!--MD5=[14957c62f09007580c46af0bdbc13592]
link EvtOperatorMessage to ProfileId--><path codeLine="48" d="M544.62,172.71 C533.52,216.84 516.83,283.18 506.44,324.47 " fill="none" id="EvtOperatorMessage-to-ProfileId" style="stroke:#A80036;stroke-width:1.0;"/><polygon fill="#A80036" points="505.21,329.38,511.3003,321.6399,506.4395,324.5335,503.5459,319.6727,505.21,329.38" style="stroke:#A80036;stroke-width:1.0;"/><text fill="#000000" font-family="sans-serif" font-size="13" lengthAdjust="spacing" textLength="50" x="527" y="254.0669">profileId</text><!--MD5=[7f767d7f0747d45dd458233475ab1fd1]
link FrontEndMessageService to NotarizationRequestId--><path codeLine="49" d="M224.64,211.31 C225.07,226.97 226.6,243.09 230,258 C235.29,281.23 246.46,305.32 256.9,324.46 " fill="none" id="FrontEndMessageService-to-NotarizationRequestId" style="stroke:#A80036;stroke-width:1.0;"/><polygon fill="#A80036" points="259.53,329.21,258.6558,319.4,257.1018,324.8392,251.6626,323.2852,259.53,329.21" style="stroke:#A80036;stroke-width:1.0;"/><text fill="#000000" font-family="sans-serif" font-size="13" lengthAdjust="spacing" textLength="118" x="231" y="254.0669">onReadyForReview</text><!--MD5=[cc3137cf2567e9ae495151fcdb890b8f]
link FrontEndMessageService to ProfileId--><path codeLine="50" d="M325.91,211.17 C370.49,250.48 421.32,295.28 455.91,325.78 " fill="none" id="FrontEndMessageService-to-ProfileId" style="stroke:#A80036;stroke-width:1.0;"/><polygon fill="#A80036" points="460.05,329.43,455.9638,320.4688,456.3067,326.1153,450.6602,326.4582,460.05,329.43" style="stroke:#A80036;stroke-width:1.0;"/><text fill="#000000" font-family="sans-serif" font-size="13" lengthAdjust="spacing" textLength="118" x="372" y="254.0669">onReadyForReview</text><!--MD5=[a18435422830b8b6aee6717de7489817]
link FrontEndMessageService to SessionId--><path codeLine="51" d="M165.36,211.07 C158.78,220.92 152.5,231.02 147,241 C132.26,267.74 119.96,300.06 111.64,324.57 " fill="none" id="FrontEndMessageService-to-SessionId" style="stroke:#A80036;stroke-width:1.0;"/><polygon fill="#A80036" points="110.03,329.36,116.6839,322.0988,111.6197,324.6195,109.0991,319.5552,110.03,329.36" style="stroke:#A80036;stroke-width:1.0;"/><text fill="#000000" font-family="sans-serif" font-size="13" lengthAdjust="spacing" textLength="71" x="148" y="254.0669">onRejected</text><!--MD5=[5bebec19ae044911402927fe4d599d6c]
@startuml

skinparam componentStyle uml2

package "'NotificationAggregate' Aggregate" <<Rectangle>> {
	class SessionId <<(V,DarkSeaGreen) Value Object>> {
		String id
	}
	class NotarizationRequestId <<(V,DarkSeaGreen) Value Object>> {
		UUID id
	}
	class ProfileId <<(V,DarkSeaGreen) Value Object>> {
		String id
	}
	class EvtRequestorMessage <<(V,DarkSeaGreen) Value Object>> {
		String id
		String payload
		MsgType msg
	}
	class EvtOperatorMessage <<(V,DarkSeaGreen) Value Object>> {
		String id
		MsgType msg
		ProfileId profileId
	}
	enum MsgType {
		READY_FOR_REVIEW
		REQUEST_REJECTED
		REQUEST_ACCEPTED_PENDING_DID
		REQUEST_ACCEPTED
		REQUEST_DELETED
		REQUEST_TERMINATED
		EXTERNAL_TASK_STARTED
		CONTACT_UPDATE
	}
	class FrontEndMessageService <<(S,DarkSeaGreen) Service>> {
		void onReadyForReview(NotarizationRequestId request, ProfileId profile)
		void onRejected(SessionId identifier)
		void onPendingDid(SessionId identifier)
		void onAccepted(SessionId identifier)
		void onAccepted(SessionId identifier, String inviteUrl)
		void onExternalTask(SessionId identifier, URI redirect)
		void onContactUpdate(SessionId identifier, String contact)
		void onDeleted(SessionId identifier)
		void onTerminated(SessionId identifier)
	}
}
EvtRequestorMessage - -> MsgType : msg
EvtOperatorMessage - -> MsgType : msg
EvtOperatorMessage - -> ProfileId : profileId
FrontEndMessageService - -> NotarizationRequestId : onReadyForReview
FrontEndMessageService - -> ProfileId : onReadyForReview
FrontEndMessageService - -> SessionId : onRejected


@enduml

PlantUML version 1.2022.0(Tue Jan 11 17:16:42 CET 2022)
(GPL source distribution)
Java Runtime: OpenJDK Runtime Environment
JVM: OpenJDK 64-Bit Server VM
Default Encoding: UTF-8
Language: en
Country: US
--></g></svg>