<?xml version="1.0" encoding="UTF-8" standalone="no"?><svg xmlns="http://www.w3.org/2000/svg" xmlns:xlink="http://www.w3.org/1999/xlink" contentScriptType="application/ecmascript" contentStyleType="text/css" height="794px" preserveAspectRatio="none" style="width:1953px;height:794px;background:#FFFFFF;" version="1.1" viewBox="0 0 1953 794" width="1953px" zoomAndPan="magnify"><defs><filter height="300%" id="f1o4jz7wu6oe87" width="300%" x="-1" y="-1"><feGaussianBlur result="blurOut" stdDeviation="2.0"/><feColorMatrix in="blurOut" result="blurOut2" type="matrix" values="0 0 0 0 0 0 0 0 0 0 0 0 0 0 0 0 0 0 .4 0"/><feOffset dx="4.0" dy="4.0" in="blurOut2" result="blurOut3"/><feBlend in="SourceGraphic" in2="blurOut3" mode="normal"/></filter></defs><g><!--MD5=[601dc70aba1116d9104cfa7ac64b7967]
entity RequestProcessingContext--><rect fill="#FEFECE" filter="url(#f1o4jz7wu6oe87)" height="46.2969" style="stroke:#A80036;stroke-width:1.5;" width="230" x="971" y="463.5"/><rect fill="#FEFECE" height="10" style="stroke:#A80036;stroke-width:1.5;" width="15" x="1181" y="468.5"/><rect fill="#FEFECE" height="2" style="stroke:#A80036;stroke-width:1.5;" width="4" x="1179" y="470.5"/><rect fill="#FEFECE" height="2" style="stroke:#A80036;stroke-width:1.5;" width="4" x="1179" y="474.5"/><text fill="#000000" font-family="sans-serif" font-size="14" lengthAdjust="spacing" textLength="190" x="986" y="496.4951">RequestProcessingContext</text><path d="M1236,451 L1236,482.5 L1201.09,486.5 L1236,490.5 L1236,521.5313 A0,0 0 0 0 1236,521.5313 L1518,521.5313 A0,0 0 0 0 1518,521.5313 L1518,461 L1508,451 L1236,451 A0,0 0 0 0 1236,451 " fill="#FBFB77" filter="url(#f1o4jz7wu6oe87)" style="stroke:#A80036;stroke-width:1.0;"/><path d="M1508,451 L1508,461 L1518,461 L1508,451 " fill="#FBFB77" style="stroke:#A80036;stroke-width:1.0;"/><text fill="#000000" font-family="sans-serif" font-size="13" lengthAdjust="spacing" textLength="191" x="1242" y="468.0669">This context represents a web</text><text fill="#000000" font-family="sans-serif" font-size="13" lengthAdjust="spacing" textLength="257" x="1242" y="483.1997">application which processes notarization</text><text fill="#000000" font-family="sans-serif" font-size="13" lengthAdjust="spacing" textLength="197" x="1242" y="498.3325">requests and is the gateway to</text><text fill="#000000" font-family="sans-serif" font-size="13" lengthAdjust="spacing" textLength="118" x="1242" y="513.4653">issuing credentials</text><!--MD5=[93fd3c8614ec6763a72bde5a0384725d]
entity SSIIssuanceContext--><rect fill="#FEFECE" filter="url(#f1o4jz7wu6oe87)" height="46.2969" style="stroke:#A80036;stroke-width:1.5;" width="177" x="1482.5" y="134.5"/><rect fill="#FEFECE" height="10" style="stroke:#A80036;stroke-width:1.5;" width="15" x="1639.5" y="139.5"/><rect fill="#FEFECE" height="2" style="stroke:#A80036;stroke-width:1.5;" width="4" x="1637.5" y="141.5"/><rect fill="#FEFECE" height="2" style="stroke:#A80036;stroke-width:1.5;" width="4" x="1637.5" y="145.5"/><text fill="#000000" font-family="sans-serif" font-size="14" lengthAdjust="spacing" textLength="137" x="1497.5" y="167.4951">SSIIssuanceContext</text><!--MD5=[7c9d797c2e7cb9a8c56f4ee1ffe8aee0]
entity SignatureVerificationContext--><rect fill="#FEFECE" filter="url(#f1o4jz7wu6oe87)" height="46.2969" style="stroke:#A80036;stroke-width:1.5;" width="235" x="252.5" y="134.5"/><rect fill="#FEFECE" height="10" style="stroke:#A80036;stroke-width:1.5;" width="15" x="467.5" y="139.5"/><rect fill="#FEFECE" height="2" style="stroke:#A80036;stroke-width:1.5;" width="4" x="465.5" y="141.5"/><rect fill="#FEFECE" height="2" style="stroke:#A80036;stroke-width:1.5;" width="4" x="465.5" y="145.5"/><text fill="#000000" font-family="sans-serif" font-size="14" lengthAdjust="spacing" textLength="195" x="267.5" y="167.4951">SignatureVerificationContext</text><path d="M522.5,130 L522.5,153.5 L487.55,157.5 L522.5,161.5 L522.5,185.3984 A0,0 0 0 0 522.5,185.3984 L773.5,185.3984 A0,0 0 0 0 773.5,185.3984 L773.5,140 L763.5,130 L522.5,130 A0,0 0 0 0 522.5,130 " fill="#FBFB77" filter="url(#f1o4jz7wu6oe87)" style="stroke:#A80036;stroke-width:1.0;"/><path d="M763.5,130 L763.5,140 L773.5,140 L763.5,130 " fill="#FBFB77" style="stroke:#A80036;stroke-width:1.0;"/><text fill="#000000" font-family="sans-serif" font-size="13" lengthAdjust="spacing" textLength="191" x="528.5" y="147.0669">This context represents a web</text><text fill="#000000" font-family="sans-serif" font-size="13" lengthAdjust="spacing" textLength="226" x="528.5" y="162.1997">application which verifies document</text><text fill="#000000" font-family="sans-serif" font-size="13" lengthAdjust="spacing" textLength="67" x="528.5" y="177.3325">signatures</text><!--MD5=[ce7f5049a9ac24b62e981965a25694e7]
entity SignatureSigningContext--><rect fill="#FEFECE" filter="url(#f1o4jz7wu6oe87)" height="46.2969" style="stroke:#A80036;stroke-width:1.5;" width="211" x="1728.5" y="315.5"/><rect fill="#FEFECE" height="10" style="stroke:#A80036;stroke-width:1.5;" width="15" x="1919.5" y="320.5"/><rect fill="#FEFECE" height="2" style="stroke:#A80036;stroke-width:1.5;" width="4" x="1917.5" y="322.5"/><rect fill="#FEFECE" height="2" style="stroke:#A80036;stroke-width:1.5;" width="4" x="1917.5" y="326.5"/><text fill="#000000" font-family="sans-serif" font-size="14" lengthAdjust="spacing" textLength="171" x="1743.5" y="348.4951">SignatureSigningContext</text><!--MD5=[4442f9bcdd28a318588328d58ff2f669]
entity AuditLogContext--><rect fill="#FEFECE" filter="url(#f1o4jz7wu6oe87)" height="46.2969" style="stroke:#A80036;stroke-width:1.5;" width="154" x="519" y="605"/><rect fill="#FEFECE" height="10" style="stroke:#A80036;stroke-width:1.5;" width="15" x="653" y="610"/><rect fill="#FEFECE" height="2" style="stroke:#A80036;stroke-width:1.5;" width="4" x="651" y="612"/><rect fill="#FEFECE" height="2" style="stroke:#A80036;stroke-width:1.5;" width="4" x="651" y="616"/><text fill="#000000" font-family="sans-serif" font-size="14" lengthAdjust="spacing" textLength="114" x="534" y="637.9951">AuditLogContext</text><path d="M708.5,600.5 L708.5,624 L673.16,628 L708.5,632 L708.5,655.8984 A0,0 0 0 0 708.5,655.8984 L959.5,655.8984 A0,0 0 0 0 959.5,655.8984 L959.5,610.5 L949.5,600.5 L708.5,600.5 A0,0 0 0 0 708.5,600.5 " fill="#FBFB77" filter="url(#f1o4jz7wu6oe87)" style="stroke:#A80036;stroke-width:1.0;"/><path d="M949.5,600.5 L949.5,610.5 L959.5,610.5 L949.5,600.5 " fill="#FBFB77" style="stroke:#A80036;stroke-width:1.0;"/><text fill="#000000" font-family="sans-serif" font-size="13" lengthAdjust="spacing" textLength="226" x="714.5" y="617.5669">This bounded context manages the</text><text fill="#000000" font-family="sans-serif" font-size="13" lengthAdjust="spacing" textLength="183" x="714.5" y="632.6997">audit logs of the notarization</text><text fill="#000000" font-family="sans-serif" font-size="13" lengthAdjust="spacing" textLength="60" x="714.5" y="647.8325">requests.</text><!--MD5=[8b8c3ffb952f4ea1649c95e04dd5820f]
entity OidcIdentityResolverContext--><rect fill="#FEFECE" filter="url(#f1o4jz7wu6oe87)" height="46.2969" style="stroke:#A80036;stroke-width:1.5;" width="235" x="880.5" y="134.5"/><rect fill="#FEFECE" height="10" style="stroke:#A80036;stroke-width:1.5;" width="15" x="1095.5" y="139.5"/><rect fill="#FEFECE" height="2" style="stroke:#A80036;stroke-width:1.5;" width="4" x="1093.5" y="141.5"/><rect fill="#FEFECE" height="2" style="stroke:#A80036;stroke-width:1.5;" width="4" x="1093.5" y="145.5"/><text fill="#000000" font-family="sans-serif" font-size="14" lengthAdjust="spacing" textLength="195" x="895.5" y="167.4951">OidcIdentityResolverContext</text><!--MD5=[8120e915b27d4fbcd81ce8f92eede226]
entity BusinessOwnerFrontEnd--><rect fill="#FEFECE" filter="url(#f1o4jz7wu6oe87)" height="46.2969" style="stroke:#A80036;stroke-width:1.5;" width="212" x="968" y="734"/><rect fill="#FEFECE" height="10" style="stroke:#A80036;stroke-width:1.5;" width="15" x="1160" y="739"/><rect fill="#FEFECE" height="2" style="stroke:#A80036;stroke-width:1.5;" width="4" x="1158" y="741"/><rect fill="#FEFECE" height="2" style="stroke:#A80036;stroke-width:1.5;" width="4" x="1158" y="745"/><text fill="#000000" font-family="sans-serif" font-size="14" lengthAdjust="spacing" textLength="172" x="983" y="766.9951">BusinessOwnerFrontEnd</text><!--MD5=[3a10339bb0d45f4b55cf176292f754e9]
entity NotarizationOperatorFrontEnd--><rect fill="#FEFECE" filter="url(#f1o4jz7wu6oe87)" height="46.2969" style="stroke:#A80036;stroke-width:1.5;" width="246" x="1215" y="734"/><rect fill="#FEFECE" height="10" style="stroke:#A80036;stroke-width:1.5;" width="15" x="1441" y="739"/><rect fill="#FEFECE" height="2" style="stroke:#A80036;stroke-width:1.5;" width="4" x="1439" y="741"/><rect fill="#FEFECE" height="2" style="stroke:#A80036;stroke-width:1.5;" width="4" x="1439" y="745"/><text fill="#000000" font-family="sans-serif" font-size="14" lengthAdjust="spacing" textLength="206" x="1230" y="766.9951">NotarizationOperatorFrontEnd</text><!--MD5=[5788d37ffe5f10191707e6388b1ac188]
entity ProfileContext--><rect fill="#FEFECE" filter="url(#f1o4jz7wu6oe87)" height="46.2969" style="stroke:#A80036;stroke-width:1.5;" width="136" x="1503" y="605"/><rect fill="#FEFECE" height="10" style="stroke:#A80036;stroke-width:1.5;" width="15" x="1619" y="610"/><rect fill="#FEFECE" height="2" style="stroke:#A80036;stroke-width:1.5;" width="4" x="1617" y="612"/><rect fill="#FEFECE" height="2" style="stroke:#A80036;stroke-width:1.5;" width="4" x="1617" y="616"/><text fill="#000000" font-family="sans-serif" font-size="14" lengthAdjust="spacing" textLength="96" x="1518" y="637.9951">ProfileContext</text><path d="M1674,600.5 L1674,624 L1639.28,628 L1674,632 L1674,655.8984 A0,0 0 0 0 1674,655.8984 L1922,655.8984 A0,0 0 0 0 1922,655.8984 L1922,610.5 L1912,600.5 L1674,600.5 A0,0 0 0 0 1674,600.5 " fill="#FBFB77" filter="url(#f1o4jz7wu6oe87)" style="stroke:#A80036;stroke-width:1.0;"/><path d="M1912,600.5 L1912,610.5 L1922,610.5 L1912,600.5 " fill="#FBFB77" style="stroke:#A80036;stroke-width:1.0;"/><text fill="#000000" font-family="sans-serif" font-size="13" lengthAdjust="spacing" textLength="216" x="1680" y="617.5669">This context manages the profiles</text><text fill="#000000" font-family="sans-serif" font-size="13" lengthAdjust="spacing" textLength="223" x="1680" y="632.6997">that define the issuance processes</text><text fill="#000000" font-family="sans-serif" font-size="13" lengthAdjust="spacing" textLength="157" x="1680" y="647.8325">for notarization requests</text><!--MD5=[90359bfc7882dbafea5c8659d30f7275]
entity RevocationContext--><rect fill="#FEFECE" filter="url(#f1o4jz7wu6oe87)" height="46.2969" style="stroke:#A80036;stroke-width:1.5;" width="171" x="770.5" y="7"/><rect fill="#FEFECE" height="10" style="stroke:#A80036;stroke-width:1.5;" width="15" x="921.5" y="12"/><rect fill="#FEFECE" height="2" style="stroke:#A80036;stroke-width:1.5;" width="4" x="919.5" y="14"/><rect fill="#FEFECE" height="2" style="stroke:#A80036;stroke-width:1.5;" width="4" x="919.5" y="18"/><text fill="#000000" font-family="sans-serif" font-size="14" lengthAdjust="spacing" textLength="131" x="785.5" y="39.9951">RevocationContext</text><!--MD5=[43d0bf58bd3e3a34c9e9d5e581f90293]
entity NotificationContext--><rect fill="#FEFECE" filter="url(#f1o4jz7wu6oe87)" height="46.2969" style="stroke:#A80036;stroke-width:1.5;" width="170" x="7" y="315.5"/><rect fill="#FEFECE" height="10" style="stroke:#A80036;stroke-width:1.5;" width="15" x="157" y="320.5"/><rect fill="#FEFECE" height="2" style="stroke:#A80036;stroke-width:1.5;" width="4" x="155" y="322.5"/><rect fill="#FEFECE" height="2" style="stroke:#A80036;stroke-width:1.5;" width="4" x="155" y="326.5"/><text fill="#000000" font-family="sans-serif" font-size="14" lengthAdjust="spacing" textLength="130" x="22" y="348.4951">NotificationContext</text><path d="M212.5,303 L212.5,334.5 L177.43,338.5 L212.5,342.5 L212.5,373.5313 A0,0 0 0 0 212.5,373.5313 L457.5,373.5313 A0,0 0 0 0 457.5,373.5313 L457.5,313 L447.5,303 L212.5,303 A0,0 0 0 0 212.5,303 " fill="#FBFB77" filter="url(#f1o4jz7wu6oe87)" style="stroke:#A80036;stroke-width:1.0;"/><path d="M447.5,303 L447.5,313 L457.5,313 L447.5,303 " fill="#FBFB77" style="stroke:#A80036;stroke-width:1.0;"/><text fill="#000000" font-family="sans-serif" font-size="13" lengthAdjust="spacing" textLength="187" x="218.5" y="320.0669">This bounded context notifies</text><text fill="#000000" font-family="sans-serif" font-size="13" lengthAdjust="spacing" textLength="220" x="218.5" y="335.1997">operators about new requests and</text><text fill="#000000" font-family="sans-serif" font-size="13" lengthAdjust="spacing" textLength="213" x="218.5" y="350.3325">requestors about any updates on</text><text fill="#000000" font-family="sans-serif" font-size="13" lengthAdjust="spacing" textLength="162" x="218.5" y="365.4653">their submitted requests.</text><!--MD5=[e2820c82e1130f3d13bb22b0255020a5]
entity RequestProcessingContext_to_SSIIssuanceContext--><ellipse cx="1443" cy="338.5" fill="#FEFECE" filter="url(#f1o4jz7wu6oe87)" rx="8" ry="8" style="stroke:#A80036;stroke-width:1.5;"/><text fill="#000000" font-family="sans-serif" font-size="14" lengthAdjust="spacing" textLength="94" x="1396" y="368.4951">RESTful HTTP</text><!--MD5=[0fdbfe8741f5bd902d92f9e4da689ac0]
entity RequestProcessingContext_to_SignatureVerificationContext--><ellipse cx="584" cy="338.5" fill="#FEFECE" filter="url(#f1o4jz7wu6oe87)" rx="8" ry="8" style="stroke:#A80036;stroke-width:1.5;"/><text fill="#000000" font-family="sans-serif" font-size="14" lengthAdjust="spacing" textLength="167" x="500.5" y="368.4951">RESTful HTTP (OpenAPI)</text><!--MD5=[790f44d1555224da972e3c3a394d2c72]
entity RequestProcessingContext_to_RevocationContext--><ellipse cx="802" cy="244" fill="#FEFECE" filter="url(#f1o4jz7wu6oe87)" rx="8" ry="8" style="stroke:#A80036;stroke-width:1.5;"/><text fill="#000000" font-family="sans-serif" font-size="14" lengthAdjust="spacing" textLength="167" x="718.5" y="273.9951">RESTful HTTP (OpenAPI)</text><!--MD5=[4f83287c0f5b22ee460e5d90cd3e1ce3]
entity RequestProcessingContext_to_OidcIdentityResolverContext--><ellipse cx="1139" cy="338.5" fill="#FEFECE" filter="url(#f1o4jz7wu6oe87)" rx="8" ry="8" style="stroke:#A80036;stroke-width:1.5;"/><text fill="#000000" font-family="sans-serif" font-size="14" lengthAdjust="spacing" textLength="167" x="1055.5" y="368.4951">RESTful HTTP (OpenAPI)</text><!--MD5=[cd76ca7464295950c1dff6ee3a8fcade]
entity BusinessOwnerFrontEnd_to_RequestProcessingContext--><ellipse cx="1086" cy="628" fill="#FEFECE" filter="url(#f1o4jz7wu6oe87)" rx="8" ry="8" style="stroke:#A80036;stroke-width:1.5;"/><text fill="#000000" font-family="sans-serif" font-size="14" lengthAdjust="spacing" textLength="167" x="1002.5" y="657.9951">RESTful HTTP (OpenAPI)</text><!--MD5=[2d0689f33bdcc1dbd26fc30a659e2eb6]
entity NotarizationOperatorFrontEnd_to_RequestProcessingContext--><ellipse cx="1315" cy="628" fill="#FEFECE" filter="url(#f1o4jz7wu6oe87)" rx="8" ry="8" style="stroke:#A80036;stroke-width:1.5;"/><text fill="#000000" font-family="sans-serif" font-size="14" lengthAdjust="spacing" textLength="167" x="1231.5" y="657.9951">RESTful HTTP (OpenAPI)</text><!--MD5=[0d4b4b665bfedba54e2eea027bb0fcc5]
entity ProfileContext_to_SignatureSigningContext--><ellipse cx="1770" cy="486.5" fill="#FEFECE" filter="url(#f1o4jz7wu6oe87)" rx="8" ry="8" style="stroke:#A80036;stroke-width:1.5;"/><text fill="#000000" font-family="sans-serif" font-size="14" lengthAdjust="spacing" textLength="148" x="1696" y="516.4951">eIDAS-Proof Issuance</text><!--MD5=[057a67e019df97481562b7d7dfe85fe4]
entity RequestProcessingContext_to_OperatorAccessManagementContext--><ellipse cx="1299" cy="338.5" fill="#FEFECE" filter="url(#f1o4jz7wu6oe87)" rx="8" ry="8" style="stroke:#A80036;stroke-width:1.5;"/><text fill="#000000" font-family="sans-serif" font-size="14" lengthAdjust="spacing" textLength="52" x="1273" y="368.4951">OAuth2</text><!--MD5=[9fbd0fccc62e170816a27395b35743ef]
entity OperatorAccessManagementContext--><rect fill="#FEFECE" filter="url(#f1o4jz7wu6oe87)" height="46.2969" style="stroke:#A80036;stroke-width:1.5;" width="296" x="1151" y="134.5"/><rect fill="#FEFECE" height="10" style="stroke:#A80036;stroke-width:1.5;" width="15" x="1427" y="139.5"/><rect fill="#FEFECE" height="2" style="stroke:#A80036;stroke-width:1.5;" width="4" x="1425" y="141.5"/><rect fill="#FEFECE" height="2" style="stroke:#A80036;stroke-width:1.5;" width="4" x="1425" y="145.5"/><text fill="#000000" font-family="sans-serif" font-size="14" lengthAdjust="spacing" textLength="256" x="1166" y="167.4951">OperatorAccessManagementContext</text><!--MD5=[479bdca1ce809fe154d9597bfcb7c027]
link RequestProcessingContext to AuditLogContext--><path d="M1001.65,511.01 C921.62,533.38 798.02,568.12 691,599 C685.88,600.48 680.6,602.01 675.29,603.56 " fill="none" id="RequestProcessingContext-AuditLogContext" style="stroke:#A80036;stroke-width:1.0;"/><polygon fill="#A80036" points="670.4,604.98,680.16,606.3,675.2,603.58,677.92,598.62,670.4,604.98" style="stroke:#A80036;stroke-width:1.0;"/><polygon fill="#A80036" points="1006.86,509.55,997.1162,508.1152,1002.0438,510.8934,999.2656,515.821,1006.86,509.55" style="stroke:#A80036;stroke-width:1.0;"/><text fill="#000000" font-family="sans-serif" font-size="13" lengthAdjust="spacing" textLength="197" x="855" y="565.0669">Shared Kernel (Shared Library)</text><!--MD5=[16635a3d77f75f4c76d8bfeea8ce617f]
link RequestProcessingContext to ProfileContext--><path d="M1167.57,510.96 C1259.89,537.52 1408.93,580.38 1497.69,605.91 " fill="none" id="RequestProcessingContext-ProfileContext" style="stroke:#A80036;stroke-width:1.0;"/><polygon fill="#A80036" points="1502.65,607.34,1495.0952,601.0214,1497.8424,605.9664,1492.8974,608.7136,1502.65,607.34" style="stroke:#A80036;stroke-width:1.0;"/><polygon fill="#A80036" points="1162.58,509.53,1170.1174,515.8693,1167.3838,510.9168,1172.3363,508.1832,1162.58,509.53" style="stroke:#A80036;stroke-width:1.0;"/><text fill="#000000" font-family="sans-serif" font-size="13" lengthAdjust="spacing" textLength="73" x="1358" y="565.0669">Partnership</text><!--MD5=[ce29e3592cea88ce7136302e50f2fc19]
link SSIIssuanceContext to RequestProcessingContext_to_SSIIssuanceContext--><path d="M1555.05,180.81 C1527.82,218.88 1473.25,295.19 1451.88,325.08 " fill="none" id="SSIIssuanceContext-to-RequestProcessingContext_to_SSIIssuanceContext" style="stroke:#A80036;stroke-width:1.0;"/><polygon fill="#A80036" points="1448.74,329.47,1457.2277,324.4742,1451.6475,325.4023,1450.7194,319.8221,1448.74,329.47" style="stroke:#A80036;stroke-width:1.0;"/><!--MD5=[4c1acb44d560181458407ff7aca7d214]
reverse link RequestProcessingContext_to_SSIIssuanceContext to RequestProcessingContext--><path d="M1429.28,346.94 C1401.08,362.05 1334.37,396.96 1276,421 C1237.67,436.78 1193.92,451.83 1158.07,463.42 " fill="none" id="RequestProcessingContext_to_SSIIssuanceContext-backto-RequestProcessingContext" style="stroke:#A80036;stroke-width:1.0;stroke-dasharray:7.0,7.0;"/><polygon fill="#A80036" points="1433.77,344.52,1423.9496,345.2688,1429.3686,346.8922,1427.7452,352.3111,1433.77,344.52" style="stroke:#A80036;stroke-width:1.0;"/><text fill="#000000" font-family="sans-serif" font-size="13" lengthAdjust="spacing" textLength="59" x="1314" y="417.0669">consume</text><!--MD5=[5016f75072a390d9b83202ab4e8d992d]
link SSIIssuanceContext to ProfileContext--><path d="M1569.48,185.9 C1567.01,233.64 1562.54,335.19 1564,421 C1565.09,485.03 1568.08,560.21 1569.78,599.66 " fill="none" id="SSIIssuanceContext-ProfileContext" style="stroke:#A80036;stroke-width:1.0;"/><polygon fill="#A80036" points="1570,604.75,1573.611,595.587,1569.7859,599.7546,1565.6183,595.9295,1570,604.75" style="stroke:#A80036;stroke-width:1.0;"/><polygon fill="#A80036" points="1569.76,180.62,1565.2767,189.3892,1569.4882,185.6126,1573.2648,189.8241,1569.76,180.62" style="stroke:#A80036;stroke-width:1.0;"/><text fill="#000000" font-family="sans-serif" font-size="13" lengthAdjust="spacing" textLength="238" x="1565" y="417.0669">Partnership (RESTful HTTP (OpenAPI))</text><!--MD5=[a8e63d57309ee7196ec60d27c7a42c2f]
link SignatureVerificationContext to RequestProcessingContext_to_SignatureVerificationContext--><path d="M396.67,180.81 C442.97,219.53 536.55,297.81 570.94,326.57 " fill="none" id="SignatureVerificationContext-to-RequestProcessingContext_to_SignatureVerificationContext" style="stroke:#A80036;stroke-width:1.0;"/><polygon fill="#A80036" points="574.83,329.83,570.4929,320.9875,570.9947,326.6221,565.3602,327.1239,574.83,329.83" style="stroke:#A80036;stroke-width:1.0;"/><!--MD5=[9aa49af005091256f462f85a5d443169]
reverse link RequestProcessingContext_to_SignatureVerificationContext to RequestProcessingContext--><path d="M578.46,352.98 C572.11,370.86 564.55,402.32 581,421 C606.37,449.82 829.93,469.23 970.97,478.73 " fill="none" id="RequestProcessingContext_to_SignatureVerificationContext-backto-RequestProcessingContext" style="stroke:#A80036;stroke-width:1.0;stroke-dasharray:7.0,7.0;"/><polygon fill="#A80036" points="580.36,347.9,573.4734,354.9409,578.6169,352.5863,580.9715,357.7299,580.36,347.9" style="stroke:#A80036;stroke-width:1.0;"/><text fill="#000000" font-family="sans-serif" font-size="13" lengthAdjust="spacing" textLength="169" x="582" y="417.0669">use Aggregate Verification</text><!--MD5=[e2eb3b05149985f0e5ee262c42f8260c]
link RevocationContext to SSIIssuanceContext--><path d="M946.9,43.35 C1066.31,60.12 1282.28,92.38 1465,130 C1470.02,131.03 1475.15,132.14 1480.33,133.3 " fill="none" id="RevocationContext-SSIIssuanceContext" style="stroke:#A80036;stroke-width:1.0;"/><polygon fill="#A80036" points="1485.52,134.48,1477.6221,128.5959,1480.6428,133.3787,1475.86,136.3994,1485.52,134.48" style="stroke:#A80036;stroke-width:1.0;"/><polygon fill="#A80036" points="941.64,42.61,950.007,47.8055,946.5928,43.2951,951.1032,39.8809,941.64,42.61" style="stroke:#A80036;stroke-width:1.0;"/><text fill="#000000" font-family="sans-serif" font-size="13" lengthAdjust="spacing" textLength="238" x="1299" y="96.0669">Partnership (RESTful HTTP (OpenAPI))</text><!--MD5=[ab071c41eb507fae74ba5c15614aedd4]
link RevocationContext to RequestProcessingContext_to_RevocationContext--><path d="M850.32,53.29 C839.12,97.28 814.45,194.11 805.41,229.61 " fill="none" id="RevocationContext-to-RequestProcessingContext_to_RevocationContext" style="stroke:#A80036;stroke-width:1.0;"/><polygon fill="#A80036" points="804.1,234.76,810.1903,227.0199,805.3295,229.9135,802.4359,225.0527,804.1,234.76" style="stroke:#A80036;stroke-width:1.0;"/><!--MD5=[ac1f68763bff03cad36448b7b9eeeec7]
reverse link RequestProcessingContext_to_RevocationContext to RequestProcessingContext--><path d="M796.52,258.01 C786.95,282.98 770.44,338.29 795,374 C834.4,431.28 907.56,459.15 970.67,472.7 " fill="none" id="RequestProcessingContext_to_RevocationContext-backto-RequestProcessingContext" style="stroke:#A80036;stroke-width:1.0;stroke-dasharray:7.0,7.0;"/><polygon fill="#A80036" points="798.44,253.16,791.4018,260.0494,796.5954,257.8073,798.8375,263.0008,798.44,253.16" style="stroke:#A80036;stroke-width:1.0;"/><text fill="#000000" font-family="sans-serif" font-size="13" lengthAdjust="spacing" textLength="233" x="796" y="343.0669">use Aggregate CredentialRevocation</text><!--MD5=[ccc2eec88413041c5fa0373135b90935]
link OidcIdentityResolverContext to RequestProcessingContext_to_OidcIdentityResolverContext--><path d="M1015.57,180.81 C1045.69,219.04 1106.17,295.82 1129.51,325.45 " fill="none" id="OidcIdentityResolverContext-to-RequestProcessingContext_to_OidcIdentityResolverContext" style="stroke:#A80036;stroke-width:1.0;"/><polygon fill="#A80036" points="1132.67,329.47,1130.235,319.9269,1129.5727,325.5449,1123.9548,324.8826,1132.67,329.47" style="stroke:#A80036;stroke-width:1.0;"/><!--MD5=[eb03d0b3d0a75cfca39778b7a331302d]
reverse link RequestProcessingContext_to_OidcIdentityResolverContext to RequestProcessingContext--><path d="M1134.23,352.65 C1125.13,377.72 1105.2,432.6 1094.02,463.4 " fill="none" id="RequestProcessingContext_to_OidcIdentityResolverContext-backto-RequestProcessingContext" style="stroke:#A80036;stroke-width:1.0;stroke-dasharray:7.0,7.0;"/><polygon fill="#A80036" points="1136,347.77,1129.1773,354.8728,1134.2993,352.4719,1136.7003,357.5939,1136,347.77" style="stroke:#A80036;stroke-width:1.0;"/><text fill="#000000" font-family="sans-serif" font-size="13" lengthAdjust="spacing" textLength="59" x="1116" y="417.0669">consume</text><!--MD5=[2eb9582dd29a9cb9a0139bf54960e7a9]
link RequestProcessingContext to BusinessOwnerFrontEnd_to_RequestProcessingContext--><path d="M1086,509.6 C1086,538.91 1086,589.7 1086,613.71 " fill="none" id="RequestProcessingContext-to-BusinessOwnerFrontEnd_to_RequestProcessingContext" style="stroke:#A80036;stroke-width:1.0;"/><polygon fill="#A80036" points="1086,618.94,1090,609.94,1086,613.94,1082,609.94,1086,618.94" style="stroke:#A80036;stroke-width:1.0;"/><!--MD5=[09be28587c8cb13ad0af53df9af0e8c2]
reverse link BusinessOwnerFrontEnd_to_RequestProcessingContext to BusinessOwnerFrontEnd--><path d="M1084.74,642.37 C1082.69,664.08 1078.61,707.25 1076.11,733.68 " fill="none" id="BusinessOwnerFrontEnd_to_RequestProcessingContext-backto-BusinessOwnerFrontEnd" style="stroke:#A80036;stroke-width:1.0;stroke-dasharray:7.0,7.0;"/><polygon fill="#A80036" points="1085.21,637.33,1080.3782,645.9122,1084.738,642.3077,1088.3425,646.6674,1085.21,637.33" style="stroke:#A80036;stroke-width:1.0;"/><text fill="#000000" font-family="sans-serif" font-size="13" lengthAdjust="spacing" textLength="59" x="1082" y="700.0669">consume</text><!--MD5=[a0a70f477bd7c96ae085e0d06511d92e]
link RequestProcessingContext to NotarizationOperatorFrontEnd_to_RequestProcessingContext--><path d="M1122.29,509.6 C1174.19,541.22 1267.15,597.85 1301.64,618.86 " fill="none" id="RequestProcessingContext-to-NotarizationOperatorFrontEnd_to_RequestProcessingContext" style="stroke:#A80036;stroke-width:1.0;"/><polygon fill="#A80036" points="1305.93,621.47,1300.322,613.3737,1301.659,618.8703,1296.1624,620.2073,1305.93,621.47" style="stroke:#A80036;stroke-width:1.0;"/><!--MD5=[87c71fbbdd146ff9bd28fcbae81fc48f]
reverse link NotarizationOperatorFrontEnd_to_RequestProcessingContext to NotarizationOperatorFrontEnd--><path d="M1317.42,642.37 C1321.35,664.08 1329.17,707.25 1333.96,733.68 " fill="none" id="NotarizationOperatorFrontEnd_to_RequestProcessingContext-backto-NotarizationOperatorFrontEnd" style="stroke:#A80036;stroke-width:1.0;stroke-dasharray:7.0,7.0;"/><polygon fill="#A80036" points="1316.51,637.33,1314.1698,646.8968,1317.3969,642.2507,1322.0429,645.4778,1316.51,637.33" style="stroke:#A80036;stroke-width:1.0;"/><text fill="#000000" font-family="sans-serif" font-size="13" lengthAdjust="spacing" textLength="59" x="1329" y="700.0669">consume</text><!--MD5=[15064c8e972582a19334f56f9e9c2de5]
link NotificationContext to RequestProcessingContext--><path d="M157.17,363.13 C169.62,367.13 182.63,370.97 195,374 C465.8,440.44 793.14,468.47 965.82,479.33 " fill="none" id="NotificationContext-RequestProcessingContext" style="stroke:#A80036;stroke-width:1.0;"/><polygon fill="#A80036" points="970.88,479.64,962.1495,475.0817,965.8899,479.3254,961.6462,483.0659,970.88,479.64" style="stroke:#A80036;stroke-width:1.0;"/><polygon fill="#A80036" points="152.24,361.53,159.567,368.1114,156.9961,363.0725,162.035,360.5017,152.24,361.53" style="stroke:#A80036;stroke-width:1.0;"/><text fill="#000000" font-family="sans-serif" font-size="13" lengthAdjust="spacing" textLength="73" x="413" y="417.0669">Partnership</text><!--MD5=[2be6df88345c9159d0acf90f5342d0dc]
link SignatureSigningContext to ProfileContext_to_SignatureSigningContext--><path d="M1830,361.59 C1826.5,378.35 1820.61,401.73 1812,421 C1803.35,440.34 1789.31,460.46 1779.87,472.98 " fill="none" id="SignatureSigningContext-to-ProfileContext_to_SignatureSigningContext" style="stroke:#A80036;stroke-width:1.0;"/><polygon fill="#A80036" points="1776.62,477.23,1785.2582,472.499,1779.6519,473.2542,1778.8968,467.6479,1776.62,477.23" style="stroke:#A80036;stroke-width:1.0;"/><!--MD5=[032b50d9f8f2482dd0e58cf7308af64a]
reverse link ProfileContext_to_SignatureSigningContext to ProfileContext--><path d="M1756.68,496.84 C1725.43,518.74 1646.76,573.89 1602.5,604.92 " fill="none" id="ProfileContext_to_SignatureSigningContext-backto-ProfileContext" style="stroke:#A80036;stroke-width:1.0;stroke-dasharray:7.0,7.0;"/><polygon fill="#A80036" points="1760.93,493.86,1751.2635,495.7465,1756.8345,496.7283,1755.8527,502.2993,1760.93,493.86" style="stroke:#A80036;stroke-width:1.0;"/><text fill="#000000" font-family="sans-serif" font-size="13" lengthAdjust="spacing" textLength="59" x="1677" y="565.0669">consume</text><!--MD5=[fb829d2aec779219df93e4185c1c6da2]
link OperatorAccessManagementContext to RequestProcessingContext_to_OperatorAccessManagementContext--><path d="M1299,180.81 C1299,218.57 1299,293.94 1299,324.34 " fill="none" id="OperatorAccessManagementContext-to-RequestProcessingContext_to_OperatorAccessManagementContext" style="stroke:#A80036;stroke-width:1.0;"/><polygon fill="#A80036" points="1299,329.47,1303,320.47,1299,324.47,1295,320.47,1299,329.47" style="stroke:#A80036;stroke-width:1.0;"/><!--MD5=[40b7cbe00245796625d32325c0ca884d]
reverse link RequestProcessingContext_to_OperatorAccessManagementContext to RequestProcessingContext--><path d="M1285.62,349.21 C1264.28,364.64 1221.16,395.61 1184,421 C1162.98,435.36 1139.12,451.08 1120.21,463.4 " fill="none" id="RequestProcessingContext_to_OperatorAccessManagementContext-backto-RequestProcessingContext" style="stroke:#A80036;stroke-width:1.0;stroke-dasharray:7.0,7.0;"/><polygon fill="#A80036" points="1289.83,346.16,1280.1914,348.1842,1285.7759,349.0864,1284.8737,354.6709,1289.83,346.16" style="stroke:#A80036;stroke-width:1.0;"/><text fill="#000000" font-family="sans-serif" font-size="13" lengthAdjust="spacing" textLength="59" x="1208" y="417.0669">consume</text><!--MD5=[abf04eb4b60a96beab21d4504fad6977]
@startuml

skinparam componentStyle uml2

component [RequestProcessingContext]
note right of [RequestProcessingContext]
This context represents a web 
application which processes notarization 
requests and is the gateway to 
issuing credentials 
end note
component [SSIIssuanceContext]
component [SignatureVerificationContext]
note right of [SignatureVerificationContext]
This context represents a web 
application which verifies document 
signatures 
end note
component [SignatureSigningContext]
component [AuditLogContext]
note right of [AuditLogContext]
This bounded context manages the 
audit logs of the notarization 
requests. 
end note
component [OidcIdentityResolverContext]
component [BusinessOwnerFrontEnd]
component [NotarizationOperatorFrontEnd]
component [ProfileContext]
note right of [ProfileContext]
This context manages the profiles 
that define the issuance processes 
for notarization requests 
end note
component [RevocationContext]
component [NotificationContext]
note right of [NotificationContext]
This bounded context notifies 
operators about new requests and 
requestors about any updates on 
their submitted requests. 
end note

[RequestProcessingContext]<- ->[AuditLogContext] : Shared Kernel (Shared Library)

[RequestProcessingContext]<- ->[ProfileContext] : Partnership

interface "RESTful HTTP" as RequestProcessingContext_to_SSIIssuanceContext
[SSIIssuanceContext] - -> RequestProcessingContext_to_SSIIssuanceContext
RequestProcessingContext_to_SSIIssuanceContext <.. [RequestProcessingContext] : consume

[SSIIssuanceContext]<- ->[ProfileContext] : Partnership (RESTful HTTP (OpenAPI))

interface "RESTful HTTP (OpenAPI)" as RequestProcessingContext_to_SignatureVerificationContext
[SignatureVerificationContext] - -> RequestProcessingContext_to_SignatureVerificationContext
RequestProcessingContext_to_SignatureVerificationContext <.. [RequestProcessingContext] : use Aggregate Verification 

[RevocationContext]<- ->[SSIIssuanceContext] : Partnership (RESTful HTTP (OpenAPI))

interface "RESTful HTTP (OpenAPI)" as RequestProcessingContext_to_RevocationContext
[RevocationContext] - -> RequestProcessingContext_to_RevocationContext
RequestProcessingContext_to_RevocationContext <.. [RequestProcessingContext] : use Aggregate CredentialRevocation 

interface "RESTful HTTP (OpenAPI)" as RequestProcessingContext_to_OidcIdentityResolverContext
[OidcIdentityResolverContext] - -> RequestProcessingContext_to_OidcIdentityResolverContext
RequestProcessingContext_to_OidcIdentityResolverContext <.. [RequestProcessingContext] : consume

interface "RESTful HTTP (OpenAPI)" as BusinessOwnerFrontEnd_to_RequestProcessingContext
[RequestProcessingContext] - -> BusinessOwnerFrontEnd_to_RequestProcessingContext
BusinessOwnerFrontEnd_to_RequestProcessingContext <.. [BusinessOwnerFrontEnd] : consume

interface "RESTful HTTP (OpenAPI)" as NotarizationOperatorFrontEnd_to_RequestProcessingContext
[RequestProcessingContext] - -> NotarizationOperatorFrontEnd_to_RequestProcessingContext
NotarizationOperatorFrontEnd_to_RequestProcessingContext <.. [NotarizationOperatorFrontEnd] : consume

[NotificationContext]<- ->[RequestProcessingContext] : Partnership

interface "eIDAS-Proof Issuance" as ProfileContext_to_SignatureSigningContext
[SignatureSigningContext] - -> ProfileContext_to_SignatureSigningContext
ProfileContext_to_SignatureSigningContext <.. [ProfileContext] : consume

interface "OAuth2" as RequestProcessingContext_to_OperatorAccessManagementContext
[OperatorAccessManagementContext] - -> RequestProcessingContext_to_OperatorAccessManagementContext
RequestProcessingContext_to_OperatorAccessManagementContext <.. [RequestProcessingContext] : consume



@enduml

PlantUML version 1.2022.0(Tue Jan 11 17:16:42 CET 2022)
(GPL source distribution)
Java Runtime: OpenJDK Runtime Environment
JVM: OpenJDK 64-Bit Server VM
Default Encoding: UTF-8
Language: en
Country: US
--></g></svg>