<?xml version="1.0" encoding="UTF-8" standalone="no"?><svg xmlns="http://www.w3.org/2000/svg" xmlns:xlink="http://www.w3.org/1999/xlink" contentScriptType="application/ecmascript" contentStyleType="text/css" height="642px" preserveAspectRatio="none" style="width:1019px;height:642px;background:#FFFFFF;" version="1.1" viewBox="0 0 1019 642" width="1019px" zoomAndPan="magnify"><defs><filter height="300%" id="fpjwaa81g7c60" width="300%" x="-1" y="-1"><feGaussianBlur result="blurOut" stdDeviation="2.0"/><feColorMatrix in="blurOut" result="blurOut2" type="matrix" values="0 0 0 0 0 0 0 0 0 0 0 0 0 0 0 0 0 0 .4 0"/><feOffset dx="4.0" dy="4.0" in="blurOut2" result="blurOut3"/><feBlend in="SourceGraphic" in2="blurOut3" mode="normal"/></filter></defs><g><!--MD5=[9bc9617615d194f0a8e6421bd02ec138]
cluster 'NotarizationRequestManagementAggregate' Aggregate--><rect fill="#FFFFFF" filter="url(#fpjwaa81g7c60)" height="623" style="stroke:#000000;stroke-width:1.5;" width="1000" x="7" y="7"/><text fill="#000000" font-family="sans-serif" font-size="14" font-weight="bold" lengthAdjust="spacing" textLength="440" x="287" y="21.9951">'NotarizationRequestManagementAggregate' Aggregate</text><!--MD5=[2501b452036be3267248ae90205fc6e6]
class RequestFilter--><rect codeLine="5" fill="#FEFECE" filter="url(#fpjwaa81g7c60)" height="86.4141" id="RequestFilter" style="stroke:#A80036;stroke-width:1.5;" width="115" x="23.5" y="342.5"/><ellipse cx="38.5" cy="358.5" fill="#EB937F" rx="11" ry="11" style="stroke:#A80036;stroke-width:1.0;"/><path d="M42.6094,364.5 L34.8906,364.5 L34.8906,352.1094 L42.6094,352.1094 L42.6094,354.2656 L37.3438,354.2656 L37.3438,356.9375 L42.1094,356.9375 L42.1094,359.0938 L37.3438,359.0938 L37.3438,362.3438 L42.6094,362.3438 L42.6094,364.5 Z " fill="#000000"/><text fill="#000000" font-family="sans-serif" font-size="12" lengthAdjust="spacing" textLength="83" x="52.5" y="362.6543">RequestFilter</text><line style="stroke:#A80036;stroke-width:1.5;" x1="24.5" x2="137.5" y1="374.5" y2="374.5"/><text fill="#000000" font-family="sans-serif" font-size="11" lengthAdjust="spacing" textLength="50" x="29.5" y="388.7104">available</text><text fill="#000000" font-family="sans-serif" font-size="11" lengthAdjust="spacing" textLength="59" x="29.5" y="401.5151">allClaimed</text><text fill="#000000" font-family="sans-serif" font-size="11" lengthAdjust="spacing" textLength="69" x="29.5" y="414.3198">ownClaimed</text><line style="stroke:#A80036;stroke-width:1.5;" x1="24.5" x2="137.5" y1="420.9141" y2="420.9141"/><!--MD5=[b6d721c423ed53bb9d7ed9bc47cb762c]
class ProfileId--><rect codeLine="10" fill="#FEFECE" filter="url(#fpjwaa81g7c60)" height="66.7422" id="ProfileId" style="stroke:#A80036;stroke-width:1.5;" width="120" x="871" y="99.5"/><ellipse cx="886" cy="118.4688" fill="#8FBC8F" rx="11" ry="11" style="stroke:#A80036;stroke-width:1.0;"/><path d="M886.1094,122.9219 L888.2969,112.5781 L890.7656,112.5781 L887.8125,124.9688 L884.4219,124.9688 L881.4688,112.5781 L883.9375,112.5781 L886.1094,122.9219 Z " fill="#000000"/><text fill="#000000" font-family="sans-serif" font-size="12" font-style="italic" lengthAdjust="spacing" textLength="92" x="898" y="115.6387">«Value Object»</text><text fill="#000000" font-family="sans-serif" font-size="12" lengthAdjust="spacing" textLength="50" x="919" y="129.6074">ProfileId</text><line style="stroke:#A80036;stroke-width:1.5;" x1="872" x2="990" y1="137.4375" y2="137.4375"/><text fill="#000000" font-family="sans-serif" font-size="11" lengthAdjust="spacing" textLength="84" x="877" y="151.6479">String profileId</text><line style="stroke:#A80036;stroke-width:1.5;" x1="872" x2="990" y1="158.2422" y2="158.2422"/><!--MD5=[e5dce6e80de7280160d8cf3e5e1b6f22]
class NotarizationRequestId--><rect codeLine="13" fill="#FEFECE" filter="url(#fpjwaa81g7c60)" height="66.7422" id="NotarizationRequestId" style="stroke:#A80036;stroke-width:1.5;" width="170" x="666" y="99.5"/><ellipse cx="681" cy="118.4688" fill="#8FBC8F" rx="11" ry="11" style="stroke:#A80036;stroke-width:1.0;"/><path d="M681.1094,122.9219 L683.2969,112.5781 L685.7656,112.5781 L682.8125,124.9688 L679.4219,124.9688 L676.4688,112.5781 L678.9375,112.5781 L681.1094,122.9219 Z " fill="#000000"/><text fill="#000000" font-family="sans-serif" font-size="12" font-style="italic" lengthAdjust="spacing" textLength="92" x="718" y="115.6387">«Value Object»</text><text fill="#000000" font-family="sans-serif" font-size="12" lengthAdjust="spacing" textLength="138" x="695" y="129.6074">NotarizationRequestId</text><line style="stroke:#A80036;stroke-width:1.5;" x1="667" x2="835" y1="137.4375" y2="137.4375"/><text fill="#000000" font-family="sans-serif" font-size="11" lengthAdjust="spacing" textLength="41" x="672" y="151.6479">UUID id</text><line style="stroke:#A80036;stroke-width:1.5;" x1="667" x2="835" y1="158.2422" y2="158.2422"/><!--MD5=[a6b8f6557368c279f4927c88dbc3f25d]
class DocumentId--><rect codeLine="16" fill="#FEFECE" filter="url(#fpjwaa81g7c60)" height="66.7422" id="DocumentId" style="stroke:#A80036;stroke-width:1.5;" width="120" x="232" y="547"/><ellipse cx="247" cy="565.9688" fill="#8FBC8F" rx="11" ry="11" style="stroke:#A80036;stroke-width:1.0;"/><path d="M247.1094,570.4219 L249.2969,560.0781 L251.7656,560.0781 L248.8125,572.4688 L245.4219,572.4688 L242.4688,560.0781 L244.9375,560.0781 L247.1094,570.4219 Z " fill="#000000"/><text fill="#000000" font-family="sans-serif" font-size="12" font-style="italic" lengthAdjust="spacing" textLength="92" x="259" y="563.1387">«Value Object»</text><text fill="#000000" font-family="sans-serif" font-size="12" lengthAdjust="spacing" textLength="75" x="267.5" y="577.1074">DocumentId</text><line style="stroke:#A80036;stroke-width:1.5;" x1="233" x2="351" y1="584.9375" y2="584.9375"/><text fill="#000000" font-family="sans-serif" font-size="11" lengthAdjust="spacing" textLength="41" x="238" y="599.1479">UUID id</text><line style="stroke:#A80036;stroke-width:1.5;" x1="233" x2="351" y1="605.7422" y2="605.7422"/><!--MD5=[e5c7c7d37139fd9bad3dce59ecfcc16d]
class DocumentFull--><rect codeLine="19" fill="#FEFECE" filter="url(#fpjwaa81g7c60)" height="169.1797" id="DocumentFull" style="stroke:#A80036;stroke-width:1.5;" width="215" x="418.5" y="301"/><ellipse cx="477.75" cy="319.9688" fill="#8FBC8F" rx="11" ry="11" style="stroke:#A80036;stroke-width:1.0;"/><path d="M477.8594,324.4219 L480.0469,314.0781 L482.5156,314.0781 L479.5625,326.4688 L476.1719,326.4688 L473.2188,314.0781 L475.6875,314.0781 L477.8594,324.4219 Z " fill="#000000"/><text fill="#000000" font-family="sans-serif" font-size="12" font-style="italic" lengthAdjust="spacing" textLength="92" x="496.25" y="317.1387">«Value Object»</text><text fill="#000000" font-family="sans-serif" font-size="12" lengthAdjust="spacing" textLength="85" x="499.75" y="331.1074">DocumentFull</text><line style="stroke:#A80036;stroke-width:1.5;" x1="419.5" x2="632.5" y1="338.9375" y2="338.9375"/><text fill="#000000" font-family="sans-serif" font-size="11" lengthAdjust="spacing" textLength="59" x="424.5" y="353.1479">String title</text><text fill="#000000" font-family="sans-serif" font-size="11" lengthAdjust="spacing" textLength="132" x="424.5" y="365.9526">String shortDescription</text><text fill="#000000" font-family="sans-serif" font-size="11" lengthAdjust="spacing" textLength="126" x="424.5" y="378.7573">String longDescription</text><text fill="#000000" font-family="sans-serif" font-size="11" lengthAdjust="spacing" textLength="94" x="424.5" y="391.562">String mimetype</text><text fill="#000000" font-family="sans-serif" font-size="11" lengthAdjust="spacing" textLength="93" x="424.5" y="404.3667">String extension</text><text fill="#000000" font-family="sans-serif" font-size="11" lengthAdjust="spacing" textLength="101" x="424.5" y="417.1714">ByteArray content</text><text fill="#000000" font-family="sans-serif" font-size="11" lengthAdjust="spacing" textLength="66" x="424.5" y="429.9761">String hash</text><text fill="#000000" font-family="sans-serif" font-size="11" lengthAdjust="spacing" textLength="81" x="424.5" y="442.7808">DocumentId id</text><text fill="#000000" font-family="sans-serif" font-size="11" lengthAdjust="spacing" textLength="203" x="424.5" y="455.5854">VerificationReport verificationReport</text><line style="stroke:#A80036;stroke-width:1.5;" x1="419.5" x2="632.5" y1="462.1797" y2="462.1797"/><!--MD5=[21e01205d54e2356ebb620f5baaf96a6]
class VerificationReport--><rect codeLine="30" fill="#FEFECE" filter="url(#fpjwaa81g7c60)" height="66.7422" id="VerificationReport" style="stroke:#A80036;stroke-width:1.5;" width="144" x="454" y="547"/><ellipse cx="469" cy="565.9688" fill="#8FBC8F" rx="11" ry="11" style="stroke:#A80036;stroke-width:1.0;"/><path d="M469.1094,570.4219 L471.2969,560.0781 L473.7656,560.0781 L470.8125,572.4688 L467.4219,572.4688 L464.4688,560.0781 L466.9375,560.0781 L469.1094,570.4219 Z " fill="#000000"/><text fill="#000000" font-family="sans-serif" font-size="12" font-style="italic" lengthAdjust="spacing" textLength="92" x="493" y="563.1387">«Value Object»</text><text fill="#000000" font-family="sans-serif" font-size="12" lengthAdjust="spacing" textLength="112" x="483" y="577.1074">VerificationReport</text><line style="stroke:#A80036;stroke-width:1.5;" x1="455" x2="597" y1="584.9375" y2="584.9375"/><text fill="#000000" font-family="sans-serif" font-size="11" lengthAdjust="spacing" textLength="68" x="460" y="599.1479">String value</text><line style="stroke:#A80036;stroke-width:1.5;" x1="455" x2="597" y1="605.7422" y2="605.7422"/><!--MD5=[18f2313ddf8392eafd001a056886c9ed]
class IdentityView--><rect codeLine="33" fill="#FEFECE" filter="url(#fpjwaa81g7c60)" height="105.1563" id="IdentityView" style="stroke:#A80036;stroke-width:1.5;" width="123" x="668.5" y="333"/><ellipse cx="684.85" cy="351.9688" fill="#8FBC8F" rx="11" ry="11" style="stroke:#A80036;stroke-width:1.0;"/><path d="M684.9594,356.4219 L687.1469,346.0781 L689.6156,346.0781 L686.6625,358.4688 L683.2719,358.4688 L680.3188,346.0781 L682.7875,346.0781 L684.9594,356.4219 Z " fill="#000000"/><text fill="#000000" font-family="sans-serif" font-size="12" font-style="italic" lengthAdjust="spacing" textLength="92" x="697.15" y="349.1387">«Value Object»</text><text fill="#000000" font-family="sans-serif" font-size="12" lengthAdjust="spacing" textLength="74" x="706.15" y="363.1074">IdentityView</text><line style="stroke:#A80036;stroke-width:1.5;" x1="669.5" x2="790.5" y1="370.9375" y2="370.9375"/><text fill="#000000" font-family="sans-serif" font-size="11" lengthAdjust="spacing" textLength="92" x="674.5" y="385.1479">String algorithm</text><text fill="#000000" font-family="sans-serif" font-size="11" lengthAdjust="spacing" textLength="97" x="674.5" y="397.9526">String encryption</text><text fill="#000000" font-family="sans-serif" font-size="11" lengthAdjust="spacing" textLength="56" x="674.5" y="410.7573">String jwk</text><text fill="#000000" font-family="sans-serif" font-size="11" lengthAdjust="spacing" textLength="111" x="674.5" y="423.562">EncryptedData data</text><line style="stroke:#A80036;stroke-width:1.5;" x1="669.5" x2="790.5" y1="430.1563" y2="430.1563"/><!--MD5=[f33d25d483408641be956fa9fec720f9]
class EncryptedData--><rect codeLine="39" fill="#FEFECE" filter="url(#fpjwaa81g7c60)" height="66.7422" id="EncryptedData" style="stroke:#A80036;stroke-width:1.5;" width="125" x="667.5" y="547"/><ellipse cx="682.5" cy="565.9688" fill="#8FBC8F" rx="11" ry="11" style="stroke:#A80036;stroke-width:1.0;"/><path d="M682.6094,570.4219 L684.7969,560.0781 L687.2656,560.0781 L684.3125,572.4688 L680.9219,572.4688 L677.9688,560.0781 L680.4375,560.0781 L682.6094,570.4219 Z " fill="#000000"/><text fill="#000000" font-family="sans-serif" font-size="12" font-style="italic" lengthAdjust="spacing" textLength="92" x="697" y="563.1387">«Value Object»</text><text fill="#000000" font-family="sans-serif" font-size="12" lengthAdjust="spacing" textLength="93" x="696.5" y="577.1074">EncryptedData</text><line style="stroke:#A80036;stroke-width:1.5;" x1="668.5" x2="791.5" y1="584.9375" y2="584.9375"/><text fill="#000000" font-family="sans-serif" font-size="11" lengthAdjust="spacing" textLength="68" x="673.5" y="599.1479">String value</text><line style="stroke:#A80036;stroke-width:1.5;" x1="668.5" x2="791.5" y1="605.7422" y2="605.7422"/><!--MD5=[7ed658da178021bd646446959e6ae054]
class RejectRequest--><rect codeLine="42" fill="#FEFECE" filter="url(#fpjwaa81g7c60)" height="66.7422" id="RejectRequest" style="stroke:#A80036;stroke-width:1.5;" width="123" x="826.5" y="352"/><ellipse cx="841.5" cy="370.9688" fill="#8FBC8F" rx="11" ry="11" style="stroke:#A80036;stroke-width:1.0;"/><path d="M841.6094,375.4219 L843.7969,365.0781 L846.2656,365.0781 L843.3125,377.4688 L839.9219,377.4688 L836.9688,365.0781 L839.4375,365.0781 L841.6094,375.4219 Z " fill="#000000"/><text fill="#000000" font-family="sans-serif" font-size="12" font-style="italic" lengthAdjust="spacing" textLength="92" x="855" y="368.1387">«Value Object»</text><text fill="#000000" font-family="sans-serif" font-size="12" lengthAdjust="spacing" textLength="91" x="855.5" y="382.1074">RejectRequest</text><line style="stroke:#A80036;stroke-width:1.5;" x1="827.5" x2="948.5" y1="389.9375" y2="389.9375"/><text fill="#000000" font-family="sans-serif" font-size="11" lengthAdjust="spacing" textLength="78" x="832.5" y="404.1479">String reason</text><line style="stroke:#A80036;stroke-width:1.5;" x1="827.5" x2="948.5" y1="410.7422" y2="410.7422"/><!--MD5=[cdac9f1262b05e14562cfdafe834b51a]
class NotarizationRequestManagementResource--><rect codeLine="45" fill="#FEFECE" filter="url(#fpjwaa81g7c60)" height="181.9844" id="NotarizationRequestManagementResource" style="stroke:#A80036;stroke-width:1.5;" width="609" x="22.5" y="42"/><ellipse cx="188.75" cy="60.9688" fill="#8FBC8F" rx="11" ry="11" style="stroke:#A80036;stroke-width:1.0;"/><path d="M188.2344,61.5313 Q186.375,60.8281 185.7188,60.0625 Q185.0781,59.2813 185.0781,57.9688 Q185.0781,56.2813 186.1563,55.3125 Q187.2344,54.3438 189.1094,54.3438 Q189.9688,54.3438 190.8125,54.5469 Q191.6719,54.7344 192.5156,55.125 L192.5156,57.5156 Q191.7344,56.9531 190.9063,56.6719 Q190.0938,56.375 189.2969,56.375 Q188.4219,56.375 187.9375,56.7344 Q187.4688,57.0938 187.4688,57.75 Q187.4688,58.2656 187.8125,58.6094 Q188.1563,58.9375 189.25,59.3438 L190.3125,59.75 Q191.7969,60.2969 192.5,61.2031 Q193.2188,62.1094 193.2188,63.4844 Q193.2188,65.3594 192.1094,66.2813 Q191,67.2031 188.75,67.2031 Q187.8281,67.2031 186.9063,66.9844 Q185.9844,66.7656 185.125,66.3438 L185.125,63.8125 Q186.0938,64.5 187.0156,64.8438 Q187.9375,65.1875 188.8281,65.1875 Q189.7344,65.1875 190.2344,64.7813 Q190.7344,64.3594 190.7344,63.625 Q190.7344,63.0625 190.3906,62.6563 Q190.0625,62.2344 189.4375,61.9844 L188.2344,61.5313 Z " fill="#000000"/><text fill="#000000" font-family="sans-serif" font-size="12" font-style="italic" lengthAdjust="spacing" textLength="59" x="313.75" y="58.1387">«Service»</text><text fill="#000000" font-family="sans-serif" font-size="12" lengthAdjust="spacing" textLength="268" x="209.25" y="72.1074">NotarizationRequestManagementResource</text><line style="stroke:#A80036;stroke-width:1.5;" x1="23.5" x2="630.5" y1="79.9375" y2="79.9375"/><line style="stroke:#A80036;stroke-width:1.5;" x1="23.5" x2="630.5" y1="87.9375" y2="87.9375"/><text fill="#000000" font-family="sans-serif" font-size="11" lengthAdjust="spacing" textLength="103" x="28.5" y="102.1479">List&lt;Profile&gt; list()</text><text fill="#000000" font-family="sans-serif" font-size="11" lengthAdjust="spacing" textLength="597" x="28.5" y="114.9526">List&lt;PagedNotarizationRequestSummary&gt; fetchAvailableRequests(int offset, int limit, RequestFilter filter)</text><text fill="#000000" font-family="sans-serif" font-size="11" lengthAdjust="spacing" textLength="516" x="28.5" y="127.7573">NotarizationRequestView fetchAvailableRequest(ProfileId profileId, NotarizationRequestId id)</text><text fill="#000000" font-family="sans-serif" font-size="11" lengthAdjust="spacing" textLength="573" x="28.5" y="140.562">DocumentFull fetchAvailableDocument(ProfileId profileId, NotarizationRequestId id, DocumentId docId)</text><text fill="#000000" font-family="sans-serif" font-size="11" lengthAdjust="spacing" textLength="402" x="28.5" y="153.3667">void claimAvailableRequest(ProfileId profileId, NotarizationRequestId id)</text><text fill="#000000" font-family="sans-serif" font-size="11" lengthAdjust="spacing" textLength="398" x="28.5" y="166.1714">Set&lt;IdentityView&gt; identity(ProfileId profileId, NotarizationRequestId id)</text><text fill="#000000" font-family="sans-serif" font-size="11" lengthAdjust="spacing" textLength="359" x="28.5" y="178.9761">void acceptRequest(ProfileId profileId, NotarizationRequestId id)</text><text fill="#000000" font-family="sans-serif" font-size="11" lengthAdjust="spacing" textLength="490" x="28.5" y="191.7808">void rejectRequest(ProfileId profileId, NotarizationRequestId id, RejectRequest request)</text><text fill="#000000" font-family="sans-serif" font-size="11" lengthAdjust="spacing" textLength="357" x="28.5" y="204.5854">void deleteRequest(ProfileId profileId, NotarizationRequestId id)</text><text fill="#000000" font-family="sans-serif" font-size="11" lengthAdjust="spacing" textLength="186" x="28.5" y="217.3901">void revoke(JsonNode credential)</text><!--MD5=[9cbcae2e4b3c1b4b377411092cb203ce]
link DocumentFull to DocumentId--><path codeLine="58" d="M424.73,470.03 C393.42,495.85 360.59,522.93 335.41,543.7 " fill="none" id="DocumentFull-to-DocumentId" style="stroke:#A80036;stroke-width:1.0;"/><polygon fill="#A80036" points="331.43,546.98,340.9223,544.3538,335.2921,543.8045,335.8414,538.1743,331.43,546.98" style="stroke:#A80036;stroke-width:1.0;"/><text fill="#000000" font-family="sans-serif" font-size="13" lengthAdjust="spacing" textLength="11" x="389" y="513.0669">id</text><!--MD5=[4391be97bda4d61f0e61475f87e04ee0]
link DocumentFull to VerificationReport--><path codeLine="59" d="M526,470.03 C526,495.01 526,521.17 526,541.66 " fill="none" id="DocumentFull-to-VerificationReport" style="stroke:#A80036;stroke-width:1.0;"/><polygon fill="#A80036" points="526,546.74,530,537.74,526,541.74,522,537.74,526,546.74" style="stroke:#A80036;stroke-width:1.0;"/><text fill="#000000" font-family="sans-serif" font-size="13" lengthAdjust="spacing" textLength="111" x="527" y="513.0669">verificationReport</text><!--MD5=[0a2dd1baa30a8608254364cbd30632f7]
link IdentityView to EncryptedData--><path codeLine="60" d="M730,438.22 C730,470.84 730,512.22 730,541.75 " fill="none" id="IdentityView-to-EncryptedData" style="stroke:#A80036;stroke-width:1.0;"/><polygon fill="#A80036" points="730,546.76,734,537.76,730,541.76,726,537.76,730,546.76" style="stroke:#A80036;stroke-width:1.0;"/><text fill="#000000" font-family="sans-serif" font-size="13" lengthAdjust="spacing" textLength="29" x="731" y="513.0669">data</text><!--MD5=[13464e490001f6e58d20ee41dc73714e]
link NotarizationRequestManagementResource to RequestFilter--><path codeLine="61" d="M90.47,224.1 C81.26,233.15 73,243.08 66,254 C50.3,278.49 53.97,310.98 61.61,337.41 " fill="none" id="NotarizationRequestManagementResource-to-RequestFilter" style="stroke:#A80036;stroke-width:1.0;"/><polygon fill="#A80036" points="63.08,342.27,64.3118,332.4985,61.6367,337.4828,56.6523,334.8077,63.08,342.27" style="stroke:#A80036;stroke-width:1.0;"/><text fill="#000000" font-family="sans-serif" font-size="13" lengthAdjust="spacing" textLength="148" x="67" y="267.0669">fetchAvailableRequests</text><!--MD5=[d5a9b566bc06f42d908382630df6dbd9]
link NotarizationRequestManagementResource to DocumentFull--><path codeLine="62" d="M398.56,224.08 C417.31,247.68 437.5,273.1 456.16,296.59 " fill="none" id="NotarizationRequestManagementResource-to-DocumentFull" style="stroke:#A80036;stroke-width:1.0;"/><polygon fill="#A80036" points="459.38,300.64,456.9067,291.1067,456.267,296.7273,450.6464,296.0876,459.38,300.64" style="stroke:#A80036;stroke-width:1.0;"/><text fill="#000000" font-family="sans-serif" font-size="13" lengthAdjust="spacing" textLength="156" x="433" y="267.0669">fetchAvailableDocument</text><!--MD5=[9a6baa7eef6ba3a87fe4007ba562c230]
link NotarizationRequestManagementResource to DocumentId--><path codeLine="63" d="M272.07,224.25 C260.1,248.34 249.18,274.95 243,301 C225.66,374.08 227.31,396.54 243,470 C248.38,495.18 259.99,521.59 270.56,542.15 " fill="none" id="NotarizationRequestManagementResource-to-DocumentId" style="stroke:#A80036;stroke-width:1.0;"/><polygon fill="#A80036" points="272.94,546.72,272.3167,536.8909,270.6242,542.2886,265.2265,540.5961,272.94,546.72" style="stroke:#A80036;stroke-width:1.0;"/><text fill="#000000" font-family="sans-serif" font-size="13" lengthAdjust="spacing" textLength="156" x="244" y="390.0669">fetchAvailableDocument</text><!--MD5=[e91ddf49f642a9dcea4663be54cf6270]
link NotarizationRequestManagementResource to IdentityView--><path codeLine="64" d="M546.43,224.04 C564.24,233.49 581.66,243.5 598,254 C624.49,271.02 628.38,279.1 651,301 C660.11,309.82 669.57,319.41 678.64,328.84 " fill="none" id="NotarizationRequestManagementResource-to-IdentityView" style="stroke:#A80036;stroke-width:1.0;"/><polygon fill="#A80036" points="682.23,332.59,678.8812,323.3279,678.7667,328.9836,673.111,328.8691,682.23,332.59" style="stroke:#A80036;stroke-width:1.0;"/><text fill="#000000" font-family="sans-serif" font-size="13" lengthAdjust="spacing" textLength="47" x="621" y="267.0669">identity</text><!--MD5=[b33a95086e73e8c6a24414284340d918]
link NotarizationRequestManagementResource to RejectRequest--><path codeLine="65" d="M624.02,224.09 C702.43,250.71 774.73,278.67 809,301 C828.27,313.56 846.19,331.73 860.09,347.91 " fill="none" id="NotarizationRequestManagementResource-to-RejectRequest" style="stroke:#A80036;stroke-width:1.0;"/><polygon fill="#A80036" points="863.53,351.98,860.7479,342.5323,860.2913,348.1707,854.6529,347.7141,863.53,351.98" style="stroke:#A80036;stroke-width:1.0;"/><text fill="#000000" font-family="sans-serif" font-size="13" lengthAdjust="spacing" textLength="88" x="744" y="267.0669">rejectRequest</text><!--MD5=[622ef3cfc2f47a0c7532a587385d6df5]
@startuml

skinparam componentStyle uml2

package "'NotarizationRequestManagementAggregate' Aggregate" <<Rectangle>> {
	enum RequestFilter {
		available
		allClaimed
		ownClaimed
	}
	class ProfileId <<(V,DarkSeaGreen) Value Object>> {
		String profileId
	}
	class NotarizationRequestId <<(V,DarkSeaGreen) Value Object>> {
		UUID id
	}
	class DocumentId <<(V,DarkSeaGreen) Value Object>> {
		UUID id
	}
	class DocumentFull <<(V,DarkSeaGreen) Value Object>> {
		String title
		String shortDescription
		String longDescription
		String mimetype
		String extension
		ByteArray content
		String hash
		DocumentId id
		VerificationReport verificationReport
	}
	class VerificationReport <<(V,DarkSeaGreen) Value Object>> {
		String value
	}
	class IdentityView <<(V,DarkSeaGreen) Value Object>> {
		String algorithm
		String encryption
		String jwk
		EncryptedData data
	}
	class EncryptedData <<(V,DarkSeaGreen) Value Object>> {
		String value
	}
	class RejectRequest <<(V,DarkSeaGreen) Value Object>> {
		String reason
	}
	class NotarizationRequestManagementResource <<(S,DarkSeaGreen) Service>> {
		List<Profile> list()
		List<PagedNotarizationRequestSummary> fetchAvailableRequests(int offset, int limit, RequestFilter filter)
		NotarizationRequestView fetchAvailableRequest(ProfileId profileId, NotarizationRequestId id)
		DocumentFull fetchAvailableDocument(ProfileId profileId, NotarizationRequestId id, DocumentId docId)
		void claimAvailableRequest(ProfileId profileId, NotarizationRequestId id)
		Set<IdentityView> identity(ProfileId profileId, NotarizationRequestId id)
		void acceptRequest(ProfileId profileId, NotarizationRequestId id)
		void rejectRequest(ProfileId profileId, NotarizationRequestId id, RejectRequest request)
		void deleteRequest(ProfileId profileId, NotarizationRequestId id)
		void revoke(JsonNode credential)
	}
}
DocumentFull - -> DocumentId : id
DocumentFull - -> VerificationReport : verificationReport
IdentityView - -> EncryptedData : data
NotarizationRequestManagementResource - -> RequestFilter : fetchAvailableRequests
NotarizationRequestManagementResource - -> DocumentFull : fetchAvailableDocument
NotarizationRequestManagementResource - -> DocumentId : fetchAvailableDocument
NotarizationRequestManagementResource - -> IdentityView : identity
NotarizationRequestManagementResource - -> RejectRequest : rejectRequest


@enduml

PlantUML version 1.2022.0(Tue Jan 11 17:16:42 CET 2022)
(GPL source distribution)
Java Runtime: OpenJDK Runtime Environment
JVM: OpenJDK 64-Bit Server VM
Default Encoding: UTF-8
Language: en
Country: US
--></g></svg>