<?xml version="1.0" encoding="UTF-8" standalone="no"?><svg xmlns="http://www.w3.org/2000/svg" xmlns:xlink="http://www.w3.org/1999/xlink" contentScriptType="application/ecmascript" contentStyleType="text/css" height="358px" preserveAspectRatio="none" style="width:337px;height:358px;background:#FFFFFF;" version="1.1" viewBox="0 0 337 358" width="337px" zoomAndPan="magnify"><defs><filter height="300%" id="fq2ui1pck8mlv" width="300%" x="-1" y="-1"><feGaussianBlur result="blurOut" stdDeviation="2.0"/><feColorMatrix in="blurOut" result="blurOut2" type="matrix" values="0 0 0 0 0 0 0 0 0 0 0 0 0 0 0 0 0 0 .4 0"/><feOffset dx="4.0" dy="4.0" in="blurOut2" result="blurOut3"/><feBlend in="SourceGraphic" in2="blurOut3" mode="normal"/></filter></defs><g><!--MD5=[268a759123620e103cec5e1bf3b10741]
cluster 'IssueCredentialAggregate' Aggregate--><rect fill="#FFFFFF" filter="url(#fq2ui1pck8mlv)" height="339" style="stroke:#000000;stroke-width:1.5;" width="318" x="7" y="7"/><text fill="#000000" font-family="sans-serif" font-size="14" font-weight="bold" lengthAdjust="spacing" textLength="302" x="15" y="21.9951">'IssueCredentialAggregate' Aggregate</text><!--MD5=[a1a0a8c3cecf7ae7dcecb5d094bbc6ab]
class IssuanceRequest--><rect codeLine="5" fill="#FEFECE" filter="url(#fq2ui1pck8mlv)" height="143.5703" id="IssuanceRequest" style="stroke:#A80036;stroke-width:1.5;" width="195" x="68.5" y="186"/><ellipse cx="108.25" cy="204.9688" fill="#8FBC8F" rx="11" ry="11" style="stroke:#A80036;stroke-width:1.0;"/><path d="M108.3594,209.4219 L110.5469,199.0781 L113.0156,199.0781 L110.0625,211.4688 L106.6719,211.4688 L103.7188,199.0781 L106.1875,199.0781 L108.3594,209.4219 Z " fill="#000000"/><text fill="#000000" font-family="sans-serif" font-size="12" font-style="italic" lengthAdjust="spacing" textLength="92" x="135.75" y="202.1387">«Value Object»</text><text fill="#000000" font-family="sans-serif" font-size="12" lengthAdjust="spacing" textLength="108" x="127.75" y="216.1074">IssuanceRequest</text><line style="stroke:#A80036;stroke-width:1.5;" x1="69.5" x2="262.5" y1="223.9375" y2="223.9375"/><text fill="#000000" font-family="sans-serif" font-size="11" lengthAdjust="spacing" textLength="183" x="74.5" y="238.1479">Timestamp issuanceTimestamp</text><text fill="#000000" font-family="sans-serif" font-size="11" lengthAdjust="spacing" textLength="93" x="74.5" y="250.9526">String holderDID</text><text fill="#000000" font-family="sans-serif" font-size="11" lengthAdjust="spacing" textLength="110" x="74.5" y="263.7573">String invitationURL</text><text fill="#000000" font-family="sans-serif" font-size="11" lengthAdjust="spacing" textLength="93" x="74.5" y="276.562">URL successURL</text><text fill="#000000" font-family="sans-serif" font-size="11" lengthAdjust="spacing" textLength="82" x="74.5" y="289.3667">URL failureURL</text><text fill="#000000" font-family="sans-serif" font-size="11" lengthAdjust="spacing" textLength="97" x="74.5" y="302.1714">ProfileId profileID</text><text fill="#000000" font-family="sans-serif" font-size="11" lengthAdjust="spacing" textLength="110" x="74.5" y="314.9761">Json credentialData</text><line style="stroke:#A80036;stroke-width:1.5;" x1="69.5" x2="262.5" y1="321.5703" y2="321.5703"/><!--MD5=[e0ffdaeca12090a19b67f26bc7e15cf5]
class IssueCredentialController--><rect codeLine="14" fill="#FEFECE" filter="url(#fq2ui1pck8mlv)" height="66.7422" id="IssueCredentialController" style="stroke:#A80036;stroke-width:1.5;" width="270" x="31" y="42"/><ellipse cx="82.75" cy="60.9688" fill="#8FBC8F" rx="11" ry="11" style="stroke:#A80036;stroke-width:1.0;"/><path d="M82.2344,61.5313 Q80.375,60.8281 79.7188,60.0625 Q79.0781,59.2813 79.0781,57.9688 Q79.0781,56.2813 80.1563,55.3125 Q81.2344,54.3438 83.1094,54.3438 Q83.9688,54.3438 84.8125,54.5469 Q85.6719,54.7344 86.5156,55.125 L86.5156,57.5156 Q85.7344,56.9531 84.9063,56.6719 Q84.0938,56.375 83.2969,56.375 Q82.4219,56.375 81.9375,56.7344 Q81.4688,57.0938 81.4688,57.75 Q81.4688,58.2656 81.8125,58.6094 Q82.1563,58.9375 83.25,59.3438 L84.3125,59.75 Q85.7969,60.2969 86.5,61.2031 Q87.2188,62.1094 87.2188,63.4844 Q87.2188,65.3594 86.1094,66.2813 Q85,67.2031 82.75,67.2031 Q81.8281,67.2031 80.9063,66.9844 Q79.9844,66.7656 79.125,66.3438 L79.125,63.8125 Q80.0938,64.5 81.0156,64.8438 Q81.9375,65.1875 82.8281,65.1875 Q83.7344,65.1875 84.2344,64.7813 Q84.7344,64.3594 84.7344,63.625 Q84.7344,63.0625 84.3906,62.6563 Q84.0625,62.2344 83.4375,61.9844 L82.2344,61.5313 Z " fill="#000000"/><text fill="#000000" font-family="sans-serif" font-size="12" font-style="italic" lengthAdjust="spacing" textLength="59" x="152.75" y="58.1387">«Service»</text><text fill="#000000" font-family="sans-serif" font-size="12" lengthAdjust="spacing" textLength="158" x="103.25" y="72.1074">IssueCredentialController</text><line style="stroke:#A80036;stroke-width:1.5;" x1="32" x2="300" y1="79.9375" y2="79.9375"/><line style="stroke:#A80036;stroke-width:1.5;" x1="32" x2="300" y1="87.9375" y2="87.9375"/><text fill="#000000" font-family="sans-serif" font-size="11" lengthAdjust="spacing" textLength="258" x="37" y="102.1479">void startIssuance(IssuanceRequest request)</text><!--MD5=[9f95a73f149b155c9332a02db44b5b33]
link IssueCredentialController to IssuanceRequest--><path codeLine="18" d="M166,109.19 C166,129.1 166,155.44 166,180.36 " fill="none" id="IssueCredentialController-to-IssuanceRequest" style="stroke:#A80036;stroke-width:1.0;"/><polygon fill="#A80036" points="166,185.66,170,176.66,166,180.66,162,176.66,166,185.66" style="stroke:#A80036;stroke-width:1.0;"/><text fill="#000000" font-family="sans-serif" font-size="13" lengthAdjust="spacing" textLength="86" x="167" y="152.0669">startIssuance</text><!--MD5=[935c446d53a019bf359c63d734074890]
@startuml

skinparam componentStyle uml2

package "'IssueCredentialAggregate' Aggregate" <<Rectangle>> {
	class IssuanceRequest <<(V,DarkSeaGreen) Value Object>> {
		Timestamp issuanceTimestamp
		String holderDID
		String invitationURL
		URL successURL
		URL failureURL
		ProfileId profileID
		Json credentialData
	}
	class IssueCredentialController <<(S,DarkSeaGreen) Service>> {
		void startIssuance(IssuanceRequest request)
	}
}
IssueCredentialController - -> IssuanceRequest : startIssuance


@enduml

PlantUML version 1.2022.0(Tue Jan 11 17:16:42 CET 2022)
(GPL source distribution)
Java Runtime: OpenJDK Runtime Environment
JVM: OpenJDK 64-Bit Server VM
Default Encoding: UTF-8
Language: en
Country: US
--></g></svg>